<?xml version="1.0" standalone="no"?><!DOCTYPE svg PUBLIC "-//W3C//DTD SVG 1.1//EN" "http://www.w3.org/Graphics/SVG/1.1/DTD/svg11.dtd"><svg t="1696921979787" class="icon" viewBox="0 0 1024 1024" version="1.1" xmlns="http://www.w3.org/2000/svg" p-id="5450" xmlns:xlink="http://www.w3.org/1999/xlink" width="128" height="128"><path d="M529.839 588.011c65.271 1.158 128.82 19.876 183.775 54.131 16.402 10.226 37.99 5.216 48.216-11.188 10.226-16.404 5.216-37.992-11.188-48.217a426.727 426.727 0 0 0-85.813-40.972 248.357 248.357 0 0 0 32.226-27.186c46.34-46.339 71.86-107.951 71.86-173.484s-25.521-127.145-71.86-173.484c-46.339-46.34-107.95-71.86-173.484-71.86s-127.145 25.52-173.484 71.86c-46.339 46.339-71.859 107.951-71.859 173.484s25.52 127.145 71.859 173.484a248.333 248.333 0 0 0 32.251 27.204C233.756 593.515 120.41 724.733 97.665 888.214c-2.664 19.146 10.698 36.826 29.843 39.489 1.636 0.228 3.261 0.338 4.867 0.338 17.19 0 32.186-12.672 34.622-30.181 24.725-177.721 177.378-309.905 356.481-309.905 2.112 0.002 4.241 0.02 6.361 0.056zM348.227 341.096c0-96.685 78.659-175.344 175.344-175.344 96.686 0 175.345 78.659 175.345 175.344S620.256 516.44 523.571 516.44s-175.344-78.659-175.344-175.344z" p-id="5451" fill="#1e8df9"></path><path d="M916.422 631.863c-13.668-13.668-35.83-13.668-49.498 0L655.037 843.751 548.32 737.035c-13.67-13.668-35.829-13.668-49.498 0-13.668 13.669-13.668 35.829 0 49.498l131.465 131.465c6.835 6.834 15.792 10.251 24.749 10.251s17.915-3.417 24.749-10.251l236.637-236.637c13.668-13.669 13.668-35.829 0-49.498z" p-id="5452" fill="#1e8df9"></path></svg>