<?xml version="1.0" standalone="no"?><!DOCTYPE svg PUBLIC "-//W3C//DTD SVG 1.1//EN" "http://www.w3.org/Graphics/SVG/1.1/DTD/svg11.dtd"><svg t="1667209001268" class="icon" viewBox="0 0 1024 1024" version="1.1" xmlns="http://www.w3.org/2000/svg" p-id="2621" width="48" height="48" xmlns:xlink="http://www.w3.org/1999/xlink"><path d="M960.512 443.392q0 8.192 0.512 38.912t0.512 71.168 0.512 85.504 0.512 81.92q0 19.456-8.704 38.912t-25.6 35.328-40.448 25.6-53.248 9.728l-637.952 0q-21.504 0-44.544-9.216t-42.496-26.112-31.744-40.96-12.288-53.76l0-439.296q0-62.464 34.304-97.792t94.72-35.328l52.224 0 105.472 0q61.44 0 131.072-0.512t130.048-0.512l101.376 0 47.104 0q23.552 0 47.616 9.216t43.008 24.576 31.232 35.84 12.288 44.032l0 11.264q-28.672 0-75.264 0.512t-102.912 1.024-119.296 1.024-124.416 1.024-117.76 0.512l-99.328 0q-25.6 0-44.544 15.872t-18.944 45.568-0.512 64-0.512 62.976l0 66.56 1.024 0 0 30.72q0 13.312 9.216 22.528t22.528 9.216 22.528-9.216 9.216-22.528l0-32.768 2.048 0-2.048-191.488 603.136 1.024q19.456 2.048 37.376 10.24t31.744 23.04 22.528 37.376 8.704 54.272z" p-id="2622" fill="#707070"></path></svg>