<?xml version="1.0" standalone="no"?><!DOCTYPE svg PUBLIC "-//W3C//DTD SVG 1.1//EN" "http://www.w3.org/Graphics/SVG/1.1/DTD/svg11.dtd"><svg t="1667209307730" class="icon" viewBox="0 0 1024 1024" version="1.1" xmlns="http://www.w3.org/2000/svg" p-id="6881" width="48" height="48" xmlns:xlink="http://www.w3.org/1999/xlink"><path d="M876.04 385.83H269.98a37.014 37.014 0 0 0-26.32 10.46 36.98 36.98 0 0 0-11.21 26v1.07l-73.61 401.27c0.81 20.05 17.46 35.8 37.53 35.49h606.17c9.81 0.16 19.28-3.59 26.33-10.41a36.998 36.998 0 0 0 11.25-25.98v-1.07l73.45-401.32c-0.6-19.7-17.22-35.51-37.53-35.51z" p-id="6882" fill="#707070"></path><path d="M232.45 337.42l0.05 0.05h588.05v-56.83c0-25.84-19.84-46.75-44.39-46.75H443.35l-66.64-70.01H154.82c-24.5 0-44.39 20.91-44.39 46.64v560.33l72.64-386.64c0.06-25.78 22.26-46.79 49.38-46.79z" p-id="6883" fill="#707070"></path></svg>