<?xml version="1.0" standalone="no"?><!DOCTYPE svg PUBLIC "-//W3C//DTD SVG 1.1//EN" "http://www.w3.org/Graphics/SVG/1.1/DTD/svg11.dtd"><svg t="1701936646690" class="icon" viewBox="0 0 1024 1024" version="1.1" xmlns="http://www.w3.org/2000/svg" p-id="2843" xmlns:xlink="http://www.w3.org/1999/xlink" width="128" height="128"><path d="M888 340.8L665.6 75.2c-4.8-6.4-14.4-11.2-22.4-11.2H192C156.8 64 128 92.8 128 128v768c0 35.2 28.8 64 64 64h640c35.2 0 64-28.8 64-64V366.4c1.6-9.6-1.6-17.6-8-25.6zM288 256h256c17.6 0 32 14.4 32 32s-14.4 32-32 32H288c-17.6 0-32-14.4-32-32s14.4-32 32-32z m448 448H288c-17.6 0-32-14.4-32-32s14.4-32 32-32h448c17.6 0 32 14.4 32 32s-14.4 32-32 32z m0-192H288c-17.6 0-32-14.4-32-32s14.4-32 32-32h448c17.6 0 32 14.4 32 32s-14.4 32-32 32z" fill="#8a8a8a" p-id="2844"></path></svg>