<svg t="1720512656870" class="icon" viewBox="0 0 1024 1024" version="1.1" xmlns="http://www.w3.org/2000/svg" p-id="3181"
    width="32" height="32">
    <path
        d="M930.2 142.1c-0.1-35.2-28.9-63.9-64.1-63.9l-520 1.1c-35.2 0.1-63.9 28.9-63.9 64.1v11.8H796c17.7 0 32 14.3 32 32V779c61.4-33.3 103.3-98.4 103.1-172.9l-0.9-464z"
        p-id="3182" fill="#ffffff"></path>
    <path
        d="M748.1 219.3H282.4v0.2l-126 0.3c-35.2 0.1-63.9 28.9-63.9 64.1l1.2 596c0.1 35.2 28.9 63.9 64.1 63.9l398-0.8c89.1-0.2 184.7-60.7 208.1-142.5h0.1V235.3c0.1-8.9-7.1-16-15.9-16zM220.7 380h210c26.5 0 48 21.5 48 48s-21.5 48-48 48h-210c-26.5 0-48-21.5-48-48s21.5-48 48-48z m320 280h-320c-26.5 0-48-21.5-48-48s21.5-48 48-48h320c26.4 0 48 21.5 48 48s-21.5 48-48 48z"
        p-id="3183" fill="#ffffff"></path>
</svg>