<svg t="1716522628568" class="icon" viewBox="0 0 1024 1024" version="1.1" xmlns="http://www.w3.org/2000/svg" p-id="2753"
    width="32" height="32">
    <path
        d="M508.501333 370.005333c-99.285333 0-180.096 79.701333-180.096 177.664 0 97.962667 80.810667 177.706667 180.096 177.706667 99.328 0 180.096-79.744 180.096-177.706667 0-97.962667-80.768-177.664-180.053333-177.664m0 300.544c-68.736 0-124.629333-55.125333-124.629333-122.88 0-67.754667 55.893333-122.837333 124.586666-122.837333 68.693333 0 124.586667 55.082667 124.586667 122.837333s-55.893333 122.88-124.586667 122.88"
        fill="#C6C6C6" p-id="2754"></path>
    <path
        d="M784.213333 334.336a41.813333 41.813333 0 0 0-41.984 41.6 41.813333 41.813333 0 0 0 41.941334 41.642667 41.813333 41.813333 0 0 0 41.984-41.642667 41.813333 41.813333 0 0 0-41.984-41.6"
        fill="#C6C6C6" p-id="2755"></path>
    <path
        d="M938.197333 766.421333h-0.725333c-0.213333 0.597333-0.597333 1.152-0.896 1.706667V315.178667c0-28.586667-23.594667-51.925333-52.608-51.925334h-159.36l-0.896-1.706666-20.608-40.618667c-2.346667-5.205333-23.424-49.621333-52.053333-49.621333H371.370667c-29.354667 0-50.944 47.146667-51.84 49.152L298.666667 261.589333l-0.853334 1.706667H138.368c-29.013333 0-52.608 23.296-52.608 51.925333v505.6c0 28.586667 23.637333 51.882667 52.608 51.882667h745.557333c29.013333 0 52.608-23.296 52.608-51.925333v-52.138667c0.512-0.725333 1.152-1.408 1.621334-2.218667z m-60.245333 31.402667c0 9.386667-7.765333 17.024-17.28 17.024H161.706667a17.237333 17.237333 0 0 1-17.28-17.066667V334.378667c0-9.386667 7.765333-17.024 17.28-17.024h161.066666l9.173334-7.765334 35.413333-54.613333c4.138667-7.082667 18.090667-25.685333 32.042667-25.685333h223.616c16.810667 0 32.213333 25.898667 32.426666 26.112l35.413334 54.698666 7.893333 5.973334 162.005333-0.554667c9.557333 0 17.28 7.637333 17.28 17.024v423.509333l-0.085333 0.426667v41.386667z"
        fill="#C6C6C6" p-id="2756"></path>
</svg>