<?xml version="1.0" standalone="no"?><!DOCTYPE svg PUBLIC "-//W3C//DTD SVG 1.1//EN" "http://www.w3.org/Graphics/SVG/1.1/DTD/svg11.dtd"><svg t="1761291839531" class="icon" viewBox="0 0 1024 1024" version="1.1" xmlns="http://www.w3.org/2000/svg" p-id="3698" xmlns:xlink="http://www.w3.org/1999/xlink" width="256" height="256"><path d="M448 896v-64h448v64z m-314.688-7.552a43.136 43.136 0 0 1-4.288-32.576 292.352 292.352 0 0 1 8.384-35.584q6.4-23.168 14.016-48.192c4.928-16.704 9.536-32 14.272-45.952a205.824 205.824 0 0 1 11.456-29.12 154.304 154.304 0 0 1 11.776-22.4 151.616 151.616 0 0 1 18.752-22.4q5.44-5.184 24.64-25.024c12.8-12.8 28.608-29.312 48-48.64l63.616-64L414.72 443.584l187.776-188.8 163.392 164.992-187.776 188.8-69.824 70.976q-35.072 34.176-62.784 62.656t-46.464 46.976c-12.16 12.416-19.2 19.2-21.952 21.184a321.92 321.92 0 0 1-19.968 16.704 120.256 120.256 0 0 1-23.616 14.016c-8.128 4.096-20.096 8.96-35.776 14.848s-32 11.584-49.408 17.088-33.536 10.368-48.832 14.464-27.072 6.4-34.624 7.936a80.96 80.96 0 0 1-9.408 0.576 27.584 27.584 0 0 1-22.08-7.488z m534.592-698.56c7.104-6.4 15.232-14.208 25.088-23.168s17.472-16.256 24-21.568A75.776 75.776 0 0 1 768 128a95.424 95.424 0 0 1 24.384 3.84 144 144 0 0 1 20.544 7.936 164.096 164.096 0 0 1 40.704 33.792 195.712 195.712 0 0 1 34.368 50.432 83.712 83.712 0 0 1 5.696 18.496 107.712 107.712 0 0 1 2.24 21.952 66.112 66.112 0 0 1-4.224 22.784 77.12 77.12 0 0 1-14.08 21.952c-6.912 6.912-13.248 12.8-18.688 18.304s-10.368 9.984-14.528 14.016-9.152 8.768-13.184 12.416z" p-id="3699" fill="#2c2c2c"></path></svg>