<?xml version="1.0" standalone="no"?><!DOCTYPE svg PUBLIC "-//W3C//DTD SVG 1.1//EN" "http://www.w3.org/Graphics/SVG/1.1/DTD/svg11.dtd"><svg t="1701936529958" class="icon" viewBox="0 0 1024 1024" version="1.1" xmlns="http://www.w3.org/2000/svg" p-id="2108" xmlns:xlink="http://www.w3.org/1999/xlink" width="128" height="128"><path d="M169.9 640.9c0 17.5 14.3 36.7 36.7 36.7H358l-55.8 51c-14.3 14.3-14.3 36.7 0 51 4.8 9.6 14.3 9.6 27.1 9.6 9.6 0 17.5-4.8 22.3-9.6l119.6-110c4.8-4.8 9.6-14.3 9.6-22.3s-4.8-17.5-9.6-22.3L354.9 503.8c-14.3-14.3-36.7-14.3-51 0-14.3 14.3-14.3 36.7 0 51l55.8 51H203.4c-19.1-1.5-33.5 12.8-33.5 35.1z m0 0" p-id="2109" fill="#8a8a8a"></path><path d="M169.9 640.9c0 17.5 14.3 36.7 36.7 36.7H358l-55.8 51c-14.3 14.3-14.3 36.7 0 51 4.8 9.6 14.3 9.6 27.1 9.6 9.6 0 17.5-4.8 22.3-9.6l119.6-110c4.8-4.8 9.6-14.3 9.6-22.3s-4.8-17.5-9.6-22.3L354.9 503.8c-14.3-14.3-36.7-14.3-51 0-14.3 14.3-14.3 36.7 0 51l55.8 51H203.4c-19.1-1.5-33.5 12.8-33.5 35.1z m0 0" p-id="2110" fill="#8a8a8a"></path><path d="M169.9 640.9c0 17.5 14.3 36.7 36.7 36.7H358l-55.8 51c-14.3 14.3-14.3 36.7 0 51 4.8 9.6 14.3 9.6 27.1 9.6 9.6 0 17.5-4.8 22.3-9.6l119.6-110c4.8-4.8 9.6-14.3 9.6-22.3s-4.8-17.5-9.6-22.3L354.9 503.8c-14.3-14.3-36.7-14.3-51 0-14.3 14.3-14.3 36.7 0 51l55.8 51H203.4c-19.1-1.5-33.5 12.8-33.5 35.1z m0 0" p-id="2111" fill="#8a8a8a"></path><path d="M857 341.2L637 98.9H286.3c-30.3 0-62.2 25.5-62.2 62.2v285.4c3.2-4.8 6.4-8 9.6-12.8 25.5-25.5 59-39.9 95.6-39.9 36.7 0 70.1 14.3 95.6 39.9l119.6 119.6c23.9 23.9 38.3 59 38.3 92.5s-14.3 68.5-38.3 92.5L423.4 851.4c-20.7 20.7-55.8 35.1-89.3 35.1-49.4 0-84.5-15.9-106.8-49.4v28.7c0 30.3 25.5 62.2 62.2 62.2h510.1c30.3 0 62.2-25.5 62.2-62.2-3.2-0.1-4.8-524.6-4.8-524.6z m-74.9 0h-98.8c-15.9 0-31.9-8-39.9-22.3V189.8l138.7 151.4z m0 0" p-id="2112" fill="#8a8a8a"></path></svg>