<svg t="1716523286085" class="icon" viewBox="0 0 1024 1024" version="1.1" xmlns="http://www.w3.org/2000/svg" p-id="3751"
    width="32" height="32">
    <path
        d="M723.2 204.8V102.4C723.2 44.8 672 0 614.4 0H409.6C352 0 300.8 44.8 300.8 102.4v102.4H96v102.4h51.2v563.2c0 83.2 70.4 153.6 153.6 153.6h416c83.2 0 153.6-70.4 153.6-153.6V307.2h57.6V204.8H723.2zM409.6 102.4h204.8v102.4H409.6V102.4z m364.8 768c0 25.6-25.6 51.2-51.2 51.2H300.8c-25.6 0-51.2-25.6-51.2-51.2V307.2h518.4v563.2h6.4z"
        fill="#D8D8D8" p-id="3752"></path>
    <path d="M358.4 409.6h102.4v409.6H358.4zM563.2 409.6h102.4v409.6H563.2z" fill="#D8D8D8" p-id="3753"></path>
</svg>