<?xml version="1.0" standalone="no"?><!DOCTYPE svg PUBLIC "-//W3C//DTD SVG 1.1//EN" "http://www.w3.org/Graphics/SVG/1.1/DTD/svg11.dtd"><svg t="1702285438853" class="icon" viewBox="0 0 1024 1024" version="1.1" xmlns="http://www.w3.org/2000/svg" p-id="2375" xmlns:xlink="http://www.w3.org/1999/xlink" width="128" height="128"><path d="M266.24 36.571429h-13.897143A110.445714 110.445714 0 0 0 146.285714 146.285714v736.548572a109.714286 109.714286 0 0 0 103.131429 104.594285H877.714286V192.365714H266.971429a34.377143 34.377143 0 0 1 0-68.754285H877.714286V36.571429H266.24z m299.154286 754.102857h-73.142857v-73.142857h73.142857v73.142857zM390.582857 430.08a146.285714 146.285714 0 0 1 29.988572-48.274286 138.971429 138.971429 0 0 1 46.811428-31.451428 152.137143 152.137143 0 0 1 62.171429-11.702857 214.308571 214.308571 0 0 1 73.142857 11.702857c17.481143 6.729143 33.353143 16.969143 46.811428 29.988571 11.044571 10.825143 19.748571 23.771429 25.6 38.034286 4.681143 12.141714 7.168 25.014857 7.314286 38.034286a128.731429 128.731429 0 0 1-7.314286 48.274285 127.268571 127.268571 0 0 1-43.885714 55.588572 210.651429 210.651429 0 0 0-27.794286 20.48 129.462857 129.462857 0 0 0-24.868571 24.137143 81.92 81.92 0 0 0-14.628571 36.571428V658.285714h-73.142858v-20.48a121.417143 121.417143 0 0 1 9.508572-43.154285 123.611429 123.611429 0 0 1 19.748571-30.72 219.428571 219.428571 0 0 1 23.405715-21.942858l24.868571-19.748571a140.434286 140.434286 0 0 0 19.017143-23.405714 62.171429 62.171429 0 0 0 7.314286-33.645715 68.022857 68.022857 0 0 0-16.822858-49.737142 62.902857 62.902857 0 0 0-46.08-16.091429 73.142857 73.142857 0 0 0-34.377142 7.314286 78.994286 78.994286 0 0 0-23.405715 20.48 96.548571 96.548571 0 0 0-13.165714 29.257143 109.714286 109.714286 0 0 0 0 27.062857H379.611429a157.988571 157.988571 0 0 1 10.971428-53.394286z" fill="#8a8a8a" p-id="2376"></path></svg>