<?xml version="1.0" standalone="no"?><!DOCTYPE svg PUBLIC "-//W3C//DTD SVG 1.1//EN" "http://www.w3.org/Graphics/SVG/1.1/DTD/svg11.dtd"><svg t="1679302515751" class="icon" viewBox="0 0 1024 1024" version="1.1" xmlns="http://www.w3.org/2000/svg" p-id="3066" xmlns:xlink="http://www.w3.org/1999/xlink" width="250" height="250"><path d="M645.071238 97.52381L828.952381 281.258667V414.47619h48.761905v390.095239h-48.761905v48.761904a73.142857 73.142857 0 0 1-73.142857 73.142857H268.190476a73.142857 73.142857 0 0 1-73.142857-73.142857v-48.761904H146.285714V414.47619h48.761905V170.666667a73.142857 73.142857 0 0 1 73.142857-73.142857h376.880762zM755.809524 804.571429H268.190476v48.761904h487.619048v-48.761904z m-242.297905-288.012191a83.675429 83.675429 0 0 0-33.792 7.460572 80.018286 80.018286 0 0 0-27.428571 20.845714c-7.899429 9.654857-13.677714 20.48-17.334858 32.475428-2.633143 10.24-4.022857 20.626286-4.169142 31.158858 0 10.678857 1.389714 21.065143 4.169142 31.158857 3.364571 11.995429 8.996571 22.820571 16.896 32.475428 7.606857 8.630857 16.676571 15.433143 27.209143 20.406857 10.971429 4.681143 22.454857 7.094857 34.450286 7.241143a89.234286 89.234286 0 0 0 34.230857-7.241143 80.896 80.896 0 0 0 26.989714-20.406857 93.135238 93.135238 0 0 0 16.896-32.475428 149.211429 149.211429 0 0 0 4.169143-31.158857 149.211429 149.211429 0 0 0-4.169143-31.158858 93.135238 93.135238 0 0 0-16.896-32.475428 78.409143 78.409143 0 0 0-26.989714-20.845714c-10.971429-4.827429-22.381714-7.314286-34.230857-7.460572z m181.028571 0a125.464381 125.464381 0 0 0-19.748571 1.974857 104.301714 104.301714 0 0 0-17.773714 5.485715 81.212952 81.212952 0 0 0-28.745143 20.845714 89.478095 89.478095 0 0 0-17.334857 32.475428c-2.633143 10.24-4.022857 20.626286-4.169143 31.158858 0 10.825143 1.389714 21.357714 4.169143 31.597714 1.901714 6.144 4.388571 12.068571 7.460571 17.773714 2.925714 5.266286 6.363429 10.166857 10.313143 14.701714 8.192 8.777143 17.92 15.506286 29.184 20.187429a104.033524 104.033524 0 0 0 37.741714 7.021714c9.508571-0.146286 18.870857-1.316571 28.086857-3.510857 7.314286-1.755429 14.336-4.315429 21.065143-7.68l-10.971428-33.792a64.195048 64.195048 0 0 1-17.115429 5.924572 94.866286 94.866286 0 0 1-18.212571 1.755428c-6.436571 0-12.580571-1.389714-18.432-4.169143a52.662857 52.662857 0 0 1-16.018286-12.288 55.759238 55.759238 0 0 1-13.385143-37.522285c0-6.729143 0.804571-13.385143 2.413714-19.968 1.901714-7.168 5.266286-13.677714 10.093715-19.529143 4.534857-4.973714 9.947429-8.777143 16.237714-11.410286 6.582857-2.340571 13.458286-3.584 20.626286-3.730286 12.141714-0.146286 23.990857 1.974857 35.547428 6.363429l1.536-34.889143a111.908571 111.908571 0 0 0-42.569143-8.777143z m-358.326857 4.388572h-61.44v174.445714h61.44c6.875429-0.146286 13.750857-0.731429 20.626286-1.755429 6.144-1.024 12.141714-2.56 17.993143-4.608 5.266286-2.194286 10.313143-4.754286 15.140571-7.68 4.388571-3.218286 8.411429-6.875429 12.068572-10.971428 3.510857-4.388571 6.582857-9.069714 9.216-14.043429a110.689524 110.689524 0 0 0 6.144-16.896c2.194286-10.24 3.364571-20.626286 3.510857-31.158857a176.37181 176.37181 0 0 0-1.755429-21.284571 113.249524 113.249524 0 0 0-4.608-18.432 90.599619 90.599619 0 0 0-7.68-15.579429 78.214095 78.214095 0 0 0-10.532571-12.507429 77.994667 77.994667 0 0 0-13.604572-9.435428 93.42781 93.42781 0 0 0-16.457142-6.363429 139.702857 139.702857 0 0 0-30.061715-3.730285z m177.298286 33.792c5.412571 0.146286 10.532571 1.462857 15.36 3.949714 5.12 2.925714 9.362286 6.802286 12.726857 11.629714 3.803429 5.851429 6.509714 12.214857 8.118857 19.090286 1.316571 6.290286 2.048 12.653714 2.194286 19.090286-0.146286 6.582857-0.877714 13.019429-2.194286 19.309714a59.977143 59.977143 0 0 1-8.118857 18.870857 43.081143 43.081143 0 0 1-12.726857 11.410286 33.084952 33.084952 0 0 1-15.36 3.730285 34.864762 34.864762 0 0 1-15.798857-3.730285 38.66819 38.66819 0 0 1-12.946286-11.410286 59.977143 59.977143 0 0 1-8.118857-18.870857 94.012952 94.012952 0 0 1 0-38.180572 59.733333 59.733333 0 0 1 8.118857-19.090285c3.510857-4.827429 7.826286-8.704 12.946286-11.629715 4.973714-2.633143 10.24-4.022857 15.798857-4.169142z m-170.276571 1.316571c4.973714 0.146286 9.654857 1.536 14.043428 4.169143 4.534857 3.072 8.265143 7.021714 11.190857 11.849143 3.218286 5.851429 5.485714 11.995429 6.802286 18.432 1.024 5.997714 1.609143 11.995429 1.755429 17.993143-0.146286 6.144-0.731429 12.214857-1.755429 18.212571a62.22019 62.22019 0 0 1-6.802286 18.212571c-2.925714 4.681143-6.656 8.557714-11.190857 11.629715a28.038095 28.038095 0 0 1-14.043428 3.730285H318.659048v-104.228571h24.576z m238.177523-385.414095L268.190476 170.666667v243.809523h487.619048v-49.956571h-174.372572L581.412571 170.666667z m73.142858 39.740952v80.993524h81.042285l-81.042285-80.993524z" p-id="3067" fill="#1890ff"></path></svg>