<?xml version="1.0" standalone="no"?><!DOCTYPE svg PUBLIC "-//W3C//DTD SVG 1.1//EN" "http://www.w3.org/Graphics/SVG/1.1/DTD/svg11.dtd"><svg t="1680492395140" class="icon" viewBox="0 0 1024 1024" version="1.1" xmlns="http://www.w3.org/2000/svg" p-id="5719" width="128" height="128" xmlns:xlink="http://www.w3.org/1999/xlink"><path d="M810.7 192h-85.3c0-23.5-19.2-42.7-42.7-42.7-23.5 0-42.7 19.2-42.7 42.7H384c0-23.5-19.2-42.7-42.7-42.7-23.5 0-42.7 19.2-42.7 42.7h-85.3c-46.9 0-85.3 38.4-85.3 85.3v512c0 46.9 38.4 85.3 85.3 85.3h597.3c46.9 0 85.3-38.4 85.3-85.3v-512c0.1-46.9-38.3-85.3-85.2-85.3z m-57.3 336.2L512 769.5c-16.6 16.6-43.7 16.6-60.3 0l-181-181c-16.6-16.6-16.6-43.7 0-60.3s43.7-16.6 60.3 0L481.8 679 693 467.8c16.6-16.6 43.7-16.6 60.3 0 16.7 16.6 16.7 43.8 0.1 60.4zM768 362.7H256c-23.5 0-42.7-19.2-42.7-42.7s19.2-42.7 42.7-42.7h42.7c0 23.5 19.2 42.7 42.7 42.7 23.5 0 42.7-19.2 42.7-42.7h256c0 23.5 19.2 42.7 42.7 42.7 23.5 0 42.7-19.2 42.7-42.7H768c23.5 0 42.7 19.2 42.7 42.7s-19.2 42.7-42.7 42.7z" p-id="5720" fill="#1e8df9"></path></svg>