<?xml version="1.0" standalone="no"?><!DOCTYPE svg PUBLIC "-//W3C//DTD SVG 1.1//EN" "http://www.w3.org/Graphics/SVG/1.1/DTD/svg11.dtd"><svg t="1702294146072" class="icon" viewBox="0 0 1024 1024" version="1.1" xmlns="http://www.w3.org/2000/svg" p-id="1729" xmlns:xlink="http://www.w3.org/1999/xlink" width="128" height="128"><path d="M563.2 759.1936V204.8h307.2a51.2 51.2 0 0 0 0-102.4H153.6a51.2 51.2 0 0 0 0 102.4h307.2v550.7584l-128-128a51.2 51.2 0 1 0-72.3968 72.448l217.1904 217.1904a51.2 51.2 0 0 0 72.448 0l217.1904-217.1904a51.2 51.2 0 1 0-72.3968-72.448L563.2 759.1936zM204.8 409.6h153.6a51.2 51.2 0 0 0 0-102.4H204.8a51.2 51.2 0 0 0 0 102.4z m460.8 0h153.6a51.2 51.2 0 0 0 0-102.4h-153.6a51.2 51.2 0 0 0 0 102.4z" fill="#666666" p-id="1730"></path></svg>