<?xml version="1.0" standalone="no"?><!DOCTYPE svg PUBLIC "-//W3C//DTD SVG 1.1//EN" "http://www.w3.org/Graphics/SVG/1.1/DTD/svg11.dtd"><svg t="1707237885844" class="icon" viewBox="0 0 1024 1024" version="1.1" xmlns="http://www.w3.org/2000/svg" p-id="4260" width="32" height="32" xmlns:xlink="http://www.w3.org/1999/xlink"><path d="M828.1 896.7H199.9c-73.2 0-132.8-59.6-132.8-132.8V514.5c0-17.7 14.3-32 32-32s32 14.3 32 32v249.4c0 37.9 30.9 68.8 68.8 68.8h628.2c37.9 0 68.8-30.9 68.8-68.8V514.5c0-17.7 14.3-32 32-32s32 14.3 32 32v249.4c0 73.2-59.6 132.8-132.8 132.8z" p-id="4261"></path><path d="M512.4 740.7c-17.7 0-32-14.3-32-32V151.8c0-17.7 14.3-32 32-32s32 14.3 32 32v556.9c0 17.7-14.3 32-32 32z" p-id="4262"></path><path d="M518.5 737.4c-8.2 0-16.4-3.1-22.6-9.4-12.5-12.5-12.5-32.8 0-45.3l156.9-156.9c12.5-12.5 32.8-12.5 45.3 0s12.5 32.8 0 45.3L541.1 728c-6.2 6.3-14.4 9.4-22.6 9.4z" p-id="4263"></path><path d="M506.2 737.2c-8.2 0-16.4-3.1-22.6-9.4L326.7 570.9c-12.5-12.5-12.5-32.8 0-45.3s32.8-12.5 45.3 0l156.9 156.9c12.5 12.5 12.5 32.8 0 45.3-6.3 6.3-14.5 9.4-22.7 9.4z" p-id="4264"></path></svg>