<?xml version="1.0" standalone="no"?><!DOCTYPE svg PUBLIC "-//W3C//DTD SVG 1.1//EN" "http://www.w3.org/Graphics/SVG/1.1/DTD/svg11.dtd"><svg class="icon" width="32px" height="32.00px" viewBox="0 0 1024 1024" version="1.1" xmlns="http://www.w3.org/2000/svg"><path fill="#ffffff" d="M64.714 650.404h892.684v55.054H64.714v-55.054zM511.058 237.488h446.34v55.057h-446.34v-55.057zM189.226 484.368h188.953l46.288 114.748h64.742l-172.84-419.212h-62.694L80.833 599.116h64.744l43.649-114.748z m86.423-221.648c2.731-6.857 5.173-16.597 7.32-29.23h1.467c2.536 13.895 4.88 23.636 7.03 29.23l68.55 174.288H207.681l67.967-174.288zM511.058 375.129h446.34v55.054h-446.34v-55.054zM64.714 788.04h892.684v55.056H64.714V788.04zM511.058 512.766h446.34v55.055h-446.34v-55.055z" /></svg>