<?xml version="1.0" standalone="no"?><!DOCTYPE svg PUBLIC "-//W3C//DTD SVG 1.1//EN" "http://www.w3.org/Graphics/SVG/1.1/DTD/svg11.dtd"><svg t="1701247954242" class="icon" viewBox="0 0 1024 1024" version="1.1" xmlns="http://www.w3.org/2000/svg" p-id="10220" id="mx_n_1701247954243" xmlns:xlink="http://www.w3.org/1999/xlink" width="48" height="48"><path d="M491.054545 940.218182c-9.309091 0-18.618182-2.327273-27.927272-6.981818L360.727273 884.363636c-20.945455-9.309091-34.909091-30.254545-34.909091-53.527272V525.963636v-2.327272L109.381818 232.727273c-13.963636-18.618182-16.290909-44.218182-4.654545-65.163637 9.309091-20.945455 30.254545-32.581818 53.527272-32.581818h560.872728c23.272727 0 44.218182 11.636364 53.527272 32.581818 9.309091 20.945455 9.309091 44.218182-4.654545 62.836364l-216.436364 290.909091V877.381818c0 20.945455-11.636364 39.563636-27.927272 51.2-11.636364 9.309091-23.272727 11.636364-32.581819 11.636364zM158.254545 190.836364c-2.327273 0-4.654545 0-4.654545 2.327272v4.654546L370.036364 488.727273c6.981818 9.309091 11.636364 23.272727 11.636363 37.236363v304.872728c0 2.327273 0 4.654545 2.327273 4.654545L488.727273 884.363636h4.654545c2.327273 0 2.327273-2.327273 2.327273-4.654545V525.963636c0-13.963636 4.654545-25.6 11.636364-37.236363l216.436363-290.909091c2.327273-2.327273 2.327273-4.654545 0-4.654546 0-2.327273-2.327273-2.327273-4.654545-2.327272H158.254545zM837.818182 633.018182h-162.909091c-16.290909 0-27.927273-11.636364-27.927273-27.927273s11.636364-27.927273 27.927273-27.927273h162.909091c16.290909 0 27.927273 11.636364 27.927273 27.927273s-11.636364 27.927273-27.927273 27.927273zM837.818182 749.381818h-162.909091c-16.290909 0-27.927273-11.636364-27.927273-27.927273s11.636364-27.927273 27.927273-27.927272h162.909091c16.290909 0 27.927273 11.636364 27.927273 27.927272s-11.636364 27.927273-27.927273 27.927273zM837.818182 865.745455h-162.909091c-16.290909 0-27.927273-11.636364-27.927273-27.927273s11.636364-27.927273 27.927273-27.927273h162.909091c16.290909 0 27.927273 11.636364 27.927273 27.927273s-11.636364 27.927273-27.927273 27.927273z" fill="#BAC0CA" p-id="10221"></path></svg>