<svg t="1720520681380" class="icon" viewBox="0 0 1024 1024" version="1.1" xmlns="http://www.w3.org/2000/svg" p-id="3427"
    width="32" height="32">
    <path
        d="M832 106.666667a85.333333 85.333333 0 0 1 85.333333 85.333333v640a85.333333 85.333333 0 0 1-85.333333 85.333333H192a85.333333 85.333333 0 0 1-85.333333-85.333333V192a85.333333 85.333333 0 0 1 85.333333-85.333333z m0 85.333333H192v640h640V192zM405.162667 525.312l2.005333 1.770667 30.165333 30.165333a21.333333 21.333333 0 0 1 1.770667 28.16l-1.770667 2.026667-20.586666 20.565333H661.333333v-37.333333a21.333333 21.333333 0 0 1 21.333334-21.333334h42.666666a21.333333 21.333333 0 0 1 21.333334 21.333334v37.333333a85.333333 85.333333 0 0 1-81.066667 85.226667l-4.266667 0.106666H420.437333l16.896 16.917334a21.333333 21.333333 0 0 1 1.770667 28.16l-1.770667 2.005333-30.165333 30.165333a21.333333 21.333333 0 0 1-28.16 1.792l-2.005333-1.792-84.053334-84.032-2.602666-2.773333a53.333333 53.333333 0 0 1-0.106667-69.717333l2.709333-2.944 84.053334-84.032a21.333333 21.333333 0 0 1 28.16-1.770667z m239.829333-277.333333l2.005333 1.770666 84.053334 84.053334 2.602666 2.773333a53.333333 53.333333 0 0 1 0.106667 69.717333l-2.709333 2.922667-84.053334 84.053333a21.333333 21.333333 0 0 1-28.16 1.770667l-2.005333-1.792-30.165333-30.165333a21.333333 21.333333 0 0 1-1.770667-28.16l1.770667-2.005334 20.586666-20.586666H362.666667v37.333333a21.333333 21.333333 0 0 1-21.333334 21.333333h-42.666666a21.333333 21.333333 0 0 1-21.333334-21.333333v-37.333333a85.333333 85.333333 0 0 1 81.066667-85.226667l4.266667-0.106667h240.896l-16.896-16.896a21.333333 21.333333 0 0 1-1.770667-28.16l1.770667-2.026666 30.165333-30.165334a21.333333 21.333333 0 0 1 28.16-1.770666z"
        fill="#ffffff" p-id="3428"></path>
</svg>