<?xml version="1.0" standalone="no"?><!DOCTYPE svg PUBLIC "-//W3C//DTD SVG 1.1//EN" "http://www.w3.org/Graphics/SVG/1.1/DTD/svg11.dtd"><svg t="1701936361327" class="icon" viewBox="0 0 1024 1024" version="1.1" xmlns="http://www.w3.org/2000/svg" p-id="1530" xmlns:xlink="http://www.w3.org/1999/xlink" width="128" height="128"><path d="M298.688 85.312A42.688 42.688 0 0 0 256 128v106.304l-128.32 74.88c-26.112 15.232-42.368 43.52-42.368 73.728v427.776c0 47.04 38.272 85.312 85.376 85.312h682.624c47.104 0 85.376-38.272 85.376-85.312V382.912c0-30.272-16.256-58.496-42.368-73.728L768 234.24V128a42.688 42.688 0 0 0-42.688-42.688H298.688z m42.624 85.376h341.376v312.896L512 589.76l-170.688-106.24V170.688zM448 256a21.312 21.312 0 0 0-21.312 21.312V320c0 11.776 9.536 21.312 21.312 21.312h128c11.776 0 21.312-9.536 21.312-21.312v-42.688A21.312 21.312 0 0 0 576 256H448zM256 333.056v97.344L175.232 380.16 256 333.056z m512 0.128l80.768 47.04L768 430.528V333.184zM448 384a21.312 21.312 0 0 0-21.312 21.312V448c0 11.776 9.536 21.312 21.312 21.312h128c11.776 0 21.312-9.536 21.312-21.312v-42.688A21.312 21.312 0 0 0 576 384H448z" fill="#8a8a8a" p-id="1531"></path></svg>