<?xml version="1.0" standalone="no"?><!DOCTYPE svg PUBLIC "-//W3C//DTD SVG 1.1//EN" "http://www.w3.org/Graphics/SVG/1.1/DTD/svg11.dtd"><svg t="1680492291543" class="icon" viewBox="0 0 1024 1024" version="1.1" xmlns="http://www.w3.org/2000/svg" p-id="4075" xmlns:xlink="http://www.w3.org/1999/xlink" width="200" height="200"><path d="M603.134946 940.36644H142.80822a60.362964 60.362964 0 0 1-59.185965-60.106964V144.687914a59.748964 59.748964 0 0 1 59.185965-60.107964H732.769868a60.362964 60.362964 0 0 1 59.185965 60.107964v367.299781a42.289975 42.289975 0 0 0 84.52995 0v-367.299781A143.765914 143.765914 0 0 0 733.690868 0H142.80822A143.765914 143.765914 0 0 0 0.014305 144.687914v734.598562a143.765914 143.765914 0 0 0 142.793915 144.686914h460.326726a41.829975 41.829975 0 1 0 0-83.60695zM239.625162 645.409616a42.289975 42.289975 0 1 0 0 84.529949H468.840026a42.289975 42.289975 0 0 0 0-84.529949zM676.450902 489.459708a42.084975 42.084975 0 0 0-42.289975-42.289974H239.573162a42.289975 42.289975 0 1 0 0 84.528949H634.109927a42.084975 42.084975 0 0 0 42.289975-42.239975z m296.951823 294.955825h-97.891942V687.64959a42.289975 42.289975 0 0 0-84.528949 0v96.765943h-97.686942a42.289975 42.289975 0 0 0 0 84.528949h97.738942v95.843943a42.289975 42.289975 0 0 0 84.528949 0v-95.843943h97.686942a42.289975 42.289975 0 0 0 0-84.529949zM634.109927 248.005852H239.573162a42.289975 42.289975 0 1 0 0 84.52995H634.109927a42.289975 42.289975 0 0 0 0-84.52995z" p-id="4076" fill="#1e8df9"></path></svg>