<?xml version="1.0" standalone="no"?><!DOCTYPE svg PUBLIC "-//W3C//DTD SVG 1.1//EN" "http://www.w3.org/Graphics/SVG/1.1/DTD/svg11.dtd"><svg t="1672991700315" class="icon" viewBox="0 0 1024 1024" version="1.1" xmlns="http://www.w3.org/2000/svg" p-id="3917" xmlns:xlink="http://www.w3.org/1999/xlink" width="32" height="32"><path d="M189.901071 540.963659l189.352579 0 46.38647 114.987894 64.878636 0L317.309856 235.855706l-62.823837 0L81.279165 655.951553l64.87966 0L189.901071 540.963659zM276.503475 318.845839c2.740414-6.869455 5.184069-16.630772 7.339152-29.28907l1.467421 0c2.543939 13.924127 4.89345 23.686469 7.048533 29.28907l68.693522 174.654832L208.396307 493.500671 276.503475 318.845839z" fill="inherit" p-id="3918"></path><path d="M65.129346 734.933395l894.566092 0 0 55.171554-894.566092 0 0-55.171554Z" fill="inherit" p-id="3919"></path><path d="M550.697347 639.407762c18.593474 15.730263 43.641963 23.597441 75.153654 23.597441 43.840484 0 77.015048-17.808598 99.520621-53.42784l1.470491 0 0 46.37419 56.951083 0 0-193.09788c0-75.936483-39.142485-113.902166-117.42541-113.902166-42.273802 0-79.55694 9.311063-111.851461 27.933189l0 51.257407c32.094976-24.228821 67.617004-36.344766 106.567108-36.344766 43.837414 0 65.75868 24.50716 65.75868 73.499991l-96.290043 12.476149c-71.827909 9.221012-107.739816 41.856293-107.739816 97.902774C522.812253 602.434685 532.103874 623.679545 550.697347 639.407762zM595.760682 533.367657c10.077519-9.03784 28.427446-15.186887 55.04364-18.441001l76.03779-9.492188 0 28.746718c0 24.592095-8.123005 45.019333-24.364921 61.295018-16.247033 16.269545-36.896328 24.405853-61.945841 24.405853-18.009166 0-32.489972-4.519943-43.447535-13.55983-10.962679-9.03784-16.441461-20.701484-16.441461-34.986839C580.641333 555.064818 585.680093 542.41266 595.760682 533.367657z" fill="inherit" p-id="3920"></path></svg>