<?xml version="1.0" standalone="no"?><!DOCTYPE svg PUBLIC "-//W3C//DTD SVG 1.1//EN" "http://www.w3.org/Graphics/SVG/1.1/DTD/svg11.dtd"><svg t="1701847866505" class="icon" viewBox="0 0 1024 1024" version="1.1" xmlns="http://www.w3.org/2000/svg" p-id="1683" xmlns:xlink="http://www.w3.org/1999/xlink" width="128" height="128"><path d="M298.667 661.333a64 64 0 1 1 0 128 64 64 0 0 1 0-128z m213.333 0a64 64 0 1 1 0 128 64 64 0 0 1 0-128z m213.333 0a64 64 0 1 1 0 128 64 64 0 0 1 0-128zM298.667 448a64 64 0 1 1 0 128 64 64 0 0 1 0-128zM512 448a64 64 0 1 1 0 128 64 64 0 0 1 0-128z m213.333 0a64 64 0 1 1 0 128 64 64 0 0 1 0-128zM298.667 234.667a64 64 0 1 1 0 128 64 64 0 0 1 0-128z m213.333 0a64 64 0 1 1 0 128 64 64 0 0 1 0-128z m213.333 0a64 64 0 1 1 0 128 64 64 0 0 1 0-128z" fill="#9AA8B3" p-id="1684"></path></svg>