<?xml version="1.0" standalone="no"?><!DOCTYPE svg PUBLIC "-//W3C//DTD SVG 1.1//EN" "http://www.w3.org/Graphics/SVG/1.1/DTD/svg11.dtd"><svg t="1680772151219" class="icon" viewBox="0 0 1024 1024" version="1.1" xmlns="http://www.w3.org/2000/svg" p-id="5243" xmlns:xlink="http://www.w3.org/1999/xlink" width="128" height="128"><path d="M512 120C296 120 120 296 120 512c0 8 4.8 16 11.2 20.8 8 4.8 16 4.8 24 0l112-64c11.2-6.4 16-20.8 9.6-32s-20.8-16-32-9.6l-73.6 41.6C192 299.2 337.6 168 512 168c190.4 0 344 153.6 344 344S702.4 856 512 856c-113.6 0-219.2-56-284.8-150.4-8-11.2-22.4-14.4-33.6-6.4s-14.4 22.4-6.4 33.6c73.6 107.2 193.6 171.2 323.2 171.2 216 0 392-176 392-392S728 120 512 120z" fill="#1e8df9" p-id="5244"></path><path d="M379.2 396.8c-17.6 0-28.8 11.2-28.8 28.8v51.2c0 17.6 11.2 28.8 28.8 28.8 11.2 0 28.8-11.2 28.8-28.8v-51.2c0-17.6-11.2-28.8-28.8-28.8zM673.6 476.8v-51.2c0-17.6-11.2-28.8-28.8-28.8s-28.8 11.2-28.8 28.8v51.2c0 17.6 11.2 28.8 28.8 28.8s28.8-11.2 28.8-28.8zM379.2 620.8c-11.2 11.2-11.2 28.8 0 40 6.4 6.4 11.2 6.4 17.6 6.4 6.4 0 11.2 0 17.6-6.4 51.2-51.2 144-57.6 195.2 0 11.2 11.2 28.8 11.2 40 0s11.2-28.8 0-40c-35.2-35.2-86.4-57.6-137.6-57.6s-104 22.4-132.8 57.6z" fill="#1e8df9" p-id="5245"></path></svg>