<svg t="1677503781385" class="icon" viewBox="0 0 1024 1024" version="1.1" xmlns="http://www.w3.org/2000/svg" p-id="17120" width="64" height="64"><path d="M713.824 1.312l237.784 237.664v705.144c0 43.216-35.968 78.568-79.92 78.568H152.32c-43.96 0-79.928-35.36-79.928-78.56V79.872c0-43.216 35.968-78.568 79.92-78.568h561.512z" fill="#62CCC3" p-id="17121"></path><path d="M711.824 1.312l239.784 235.704H791.76c-43.96 0-79.928-35.36-79.928-78.568V1.312z" fill="#FFFFFF" fill-opacity=".551" p-id="17122"></path><path d="M300.568 368H483.44C505.36 368 520 382.4 520 404S505.368 440 483.432 440H300.56C278.64 440 264 425.6 264 404s14.632-36 36.568-36zM300 520h432c21.6 0 36 14.4 36 36S753.6 592 732 592h-432c-21.6 0-36-14.4-36-36s14.4-36 36-36zM300 664h432c21.6 0 36 14.4 36 36S753.6 736 732 736h-432c-21.6 0-36-14.4-36-36s14.4-36 36-36z" fill="#FFFFFF" p-id="17123"></path></svg>