<svg t="1720593492297" class="icon" viewBox="0 0 1024 1024" version="1.1" xmlns="http://www.w3.org/2000/svg" p-id="2442"
    width="32" height="32">
    <path
        d="M896 928H128c-17.6 0-32-14.4-32-32s14.4-32 32-32h768c17.6 0 32 14.4 32 32s-14.4 32-32 32zM896 800H128c-17.6 0-32-14.4-32-32V608c0-52.8 43.2-96 96-96h204.8c-6.4-38.4-25.6-75.2-52.8-107.2-36.8-41.6-56-94.4-56-148.8 0-60.8 24-118.4 68.8-161.6 44.8-43.2 102.4-64 164.8-62.4 115.2 4.8 212.8 104 214.4 219.2 1.6 57.6-20.8 113.6-59.2 156.8-27.2 28.8-43.2 64-49.6 104H832c52.8 0 96 43.2 96 96v160c0 17.6-14.4 32-32 32z m-736-64h704v-128c0-17.6-14.4-32-32-32H592c-17.6 0-32-14.4-32-32 0-67.2 24-131.2 68.8-179.2 28.8-30.4 43.2-70.4 43.2-112-1.6-83.2-70.4-153.6-153.6-156.8-44.8-1.6-86.4 14.4-116.8 44.8-32 30.4-49.6 72-49.6 115.2 0 38.4 14.4 76.8 40 105.6C438.4 414.4 464 478.4 464 544c0 17.6-14.4 32-32 32H192c-17.6 0-32 14.4-32 32v128z"
        fill="#ffffff" p-id="2443"></path>
</svg>