<?xml version="1.0" standalone="no"?><!DOCTYPE svg PUBLIC "-//W3C//DTD SVG 1.1//EN" "http://www.w3.org/Graphics/SVG/1.1/DTD/svg11.dtd"><svg t="1701936433060" class="icon" viewBox="0 0 1024 1024" version="1.1" xmlns="http://www.w3.org/2000/svg" p-id="1821" xmlns:xlink="http://www.w3.org/1999/xlink" width="128" height="128"><path d="M929.317 130.715L84 456.921c-47.58 18.36-46.416 45.123 2.457 59.604l204.283 60.639 83.006 247.078c10.86 32.324 39.305 39.176 63.612 15.128l107.184-106.15 211.523 155.022c27.54 20.17 55.725 9.568 63.095-23.919l154.246-695.466c7.37-33.358-12.282-50.425-44.089-38.142z m-128.646 157.22L440.073 609.228c-6.465 5.818-12.412 17.196-13.317 25.73l-15.903 149.72c-1.81 16.809-7.628 17.455-12.93 1.423l-69.818-210.36c-2.715-8.274 1.035-18.36 8.275-22.626l457.31-274.23c29.22-17.713 32.322-13.576 6.981 9.05z" p-id="1822" fill="#8a8a8a"></path></svg>