<?xml version="1.0" standalone="no"?><!DOCTYPE svg PUBLIC "-//W3C//DTD SVG 1.1//EN" "http://www.w3.org/Graphics/SVG/1.1/DTD/svg11.dtd"><svg class="icon" width="32px" height="32.00px" viewBox="0 0 1024 1024" version="1.1" xmlns="http://www.w3.org/2000/svg"><path fill="#595959" d="M685.504 112.576l4.48 3.648 173.76 173.824a32 32 0 0 1 3.712 40.832l-3.712 4.416-517.76 517.632 50.304 0.128c46.08-5.312 75.52-28.096 92.416-71.552a32 32 0 0 1 54.144-9.216c49.92 58.24 105.664 80.32 171.264 68.352l8.704-1.92 7.04-3.776c13.568-7.808 25.28-16.192 35.2-25.28l4.288-4.288-9.088-6.144c-57.792-40.256-88.96-81.664-92.672-125.888l-0.32-8.896c0-56.448 33.28-94.208 81.152-100.48 42.24-5.632 86.336 15.232 100.48 52.864 21.568 57.216 26.048 108.672 13.696 153.28l-4.352 13.312 0.64 0.32c18.112 9.536 38.208 19.2 60.224 28.928l16.896 7.36a32 32 0 0 1-25.152 58.88c-23.168-9.92-44.736-19.84-64.64-29.76l-20.48-10.496-7.104 8a250.88 250.88 0 0 1-58.112 44.48l-11.776 6.4-7.168 2.688c-76.032 18.432-145.024 3.136-204.48-44.544l-10.88-9.152-1.472 2.176c-25.792 35.584-62.912 57.984-111.36 66.24l-13.44 1.92H100.672a32.064 32.064 0 0 1-7.36-0.896A32.064 32.064 0 0 1 64 886.4l0.128-6.016 22.848-196.608a32 32 0 0 1 5.696-14.848l3.456-4.096 548.544-548.608a32 32 0 0 1 40.832-3.648zM548.544 302.72l-399.36 399.36-16.832 145.408 145.408-16.832 399.296-399.36-128.512-128.576z m213.824 324.224l-5.568 0.384c-16.128 2.112-25.6 12.8-25.6 37.12 0 22.208 19.072 48.256 57.92 76.736l12.48 8.704 1.024-3.648c5.952-27.2 2.816-58.56-9.28-94.72l-4.352-12.16c-2.304-6.208-13.76-12.288-26.624-12.416z m-95.04-442.88L593.792 257.536l128.576 128.576 73.472-73.472-128.512-128.512z"  /></svg>