<?xml version="1.0" standalone="no"?><!DOCTYPE svg PUBLIC "-//W3C//DTD SVG 1.1//EN" "http://www.w3.org/Graphics/SVG/1.1/DTD/svg11.dtd"><svg t="1761290510058" class="icon" viewBox="0 0 1024 1024" version="1.1" xmlns="http://www.w3.org/2000/svg" p-id="4622" xmlns:xlink="http://www.w3.org/1999/xlink" width="256" height="256"><path d="M874.048 533.333C863.424 716.63 716.629 863.424 533.333 874.048v43.285a21.333 21.333 0 0 1-42.666 0v-43.285C307.37 863.424 160.576 716.629 149.952 533.333h-43.285a21.333 21.333 0 0 1 0-42.666h43.285c10.624-183.296 157.419-330.091 340.715-340.715v-43.285a21.333 21.333 0 0 1 42.666 0v43.285c183.296 10.624 330.091 157.419 340.715 340.715h42.816a21.333 21.333 0 1 1 0 42.666h-42.837z m-42.752 0H703.509a21.333 21.333 0 0 1 0-42.666h127.787c-10.517-159.744-138.24-287.446-297.963-297.963V320a21.333 21.333 0 0 1-42.666 0V192.704c-159.744 10.517-287.446 138.24-297.963 297.963H320a21.333 21.333 0 0 1 0 42.666H192.704c10.517 159.744 138.24 287.446 297.963 297.963V704a21.333 21.333 0 0 1 42.666 0v127.296c159.744-10.517 287.446-138.24 297.963-297.963zM512 554.667a42.667 42.667 0 1 1 0-85.334 42.667 42.667 0 0 1 0 85.334z" p-id="4623" fill="#2c2c2c"></path></svg>