<?xml version="1.0" standalone="no"?><!DOCTYPE svg PUBLIC "-//W3C//DTD SVG 1.1//EN" "http://www.w3.org/Graphics/SVG/1.1/DTD/svg11.dtd"><svg t="1751421785301" class="icon" viewBox="0 0 1024 1024" version="1.1" xmlns="http://www.w3.org/2000/svg" p-id="3528" xmlns:xlink="http://www.w3.org/1999/xlink" width="256" height="256"><path d="M425.6 403.2c0 51.2 41.6 92.8 92.8 92.8s92.8-41.6 92.8-92.8-41.6-92.8-92.8-92.8-92.8 41.6-92.8 92.8z" fill="#bfbfbf" p-id="3529"></path><path d="M512 44.8C390.4 128 265.6 169.6 144 169.6v294.4c0 166.4 83.2 320 217.6 412.8l150.4 102.4 150.4-102.4c134.4-92.8 217.6-249.6 217.6-412.8V169.6C755.2 169.6 633.6 128 512 44.8z m35.2 512v60.8H640v64h-92.8v99.2h-60.8v-220.8c-70.4-16-124.8-76.8-124.8-153.6 0-86.4 70.4-156.8 156.8-156.8s156.8 70.4 156.8 156.8c0 73.6-54.4 134.4-128 150.4z" fill="#bfbfbf" p-id="3530"></path></svg>