<?xml version="1.0" standalone="no"?><!DOCTYPE svg PUBLIC "-//W3C//DTD SVG 1.1//EN" "http://www.w3.org/Graphics/SVG/1.1/DTD/svg11.dtd"><svg t="1680492133304" class="icon" viewBox="0 0 1024 1024" version="1.1" xmlns="http://www.w3.org/2000/svg" p-id="2832" xmlns:xlink="http://www.w3.org/1999/xlink" width="200" height="200"><path d="M890.3 352.2c-20.7-48.9-50.3-92.8-88-130.5s-81.6-67.3-130.5-88c-50.6-21.4-104.4-32.3-159.8-32.3s-109.2 10.9-159.8 32.3c-48.9 20.7-92.8 50.3-130.5 88s-67.3 81.6-88 130.5c-21.4 50.6-32.3 104.4-32.3 159.8s10.9 109.2 32.3 159.8c20.7 48.9 50.3 92.8 88 130.5s81.6 67.3 130.5 88c50.6 21.4 104.4 32.3 159.8 32.3s109.2-10.9 159.8-32.3c48.9-20.7 92.8-50.3 130.5-88s67.3-81.6 88-130.5c21.4-50.6 32.3-104.4 32.3-159.8s-10.9-109.2-32.3-159.8zM512.1 862.5c-193.3 0-350.5-157.2-350.5-350.5S318.8 161.5 512.1 161.5 862.6 318.7 862.6 512 705.4 862.5 512.1 862.5z" p-id="2833" fill="#1e8df9"></path><path d="M714.8 487.5l-274-192.7c-9.2-6.4-21.1-7.2-31.1-2.1-9.9 5.2-16.2 15.4-16.2 26.6v385.2c0 11.2 6.2 21.5 16.2 26.6 4.4 2.3 9.1 3.4 13.8 3.4 6.1 0 12.1-1.8 17.3-5.5l274.1-192.6c8-5.6 12.7-14.8 12.7-24.5s-4.8-18.8-12.8-24.4zM453.5 646.9V377.1L645.4 512 453.5 646.9z" p-id="2834" fill="#1e8df9"></path></svg>