<svg t="1677503641202" class="icon" viewBox="0 0 1024 1024" version="1.1" xmlns="http://www.w3.org/2000/svg" p-id="14683" width="64" height="64"><path d="M597.333333 0l341.333334 341.333333v563.2a119.466667 119.466667 0 0 1-119.466667 119.466667H204.8A119.466667 119.466667 0 0 1 85.333333 904.533333V119.466667C85.333333 53.475556 138.808889 0 204.8 0H597.333333z" fill="#7757BC" p-id="14684"></path><path d="M646.144 535.893333v-91.022222c0-15.587556-11.377778-25.941333-28.558222-25.941333H275.342222c-17.066667 0-28.558222 10.353778-28.558222 25.998222v259.584c0 15.587556 11.377778 25.998222 28.558222 25.998222h342.357334c17.066667 0 28.615111-10.410667 28.615111-25.998222v-90.794667l114.119111 103.879111v-285.582222L646.144 535.779556z" fill="#FFFFFF" p-id="14685"></path><path d="M938.666667 341.333333h-215.836445C656.839111 341.333333 597.333333 281.827556 597.333333 215.836444V0l341.333334 341.333333z" fill="#000000" fill-opacity=".176" p-id="14686"></path></svg>