<?xml version="1.0" standalone="no"?><!DOCTYPE svg PUBLIC "-//W3C//DTD SVG 1.1//EN" "http://www.w3.org/Graphics/SVG/1.1/DTD/svg11.dtd"><svg t="1701936850400" class="icon" viewBox="0 0 1024 1024" version="1.1" xmlns="http://www.w3.org/2000/svg" p-id="3417" xmlns:xlink="http://www.w3.org/1999/xlink" width="128" height="128"><path d="M515.426 3C234.547 3 6.851 230.697 6.851 511.575s227.697 508.576 508.575 508.576S1024 792.454 1024 511.575C1024 230.697 796.304 3 515.426 3zM236.402 586.43c-42.44 0-76.839-34.402-76.839-76.842 0-42.439 34.399-76.839 76.839-76.839 42.435 0 76.84 34.399 76.84 76.839 0.001 42.439-34.405 76.842-76.84 76.842z m279.778 0c-42.438 0-76.845-34.402-76.845-76.842a76.836 76.836 0 0 1 38.422-66.545 76.836 76.836 0 0 1 76.84 0 76.834 76.834 0 0 1 38.418 66.545c0.006 42.439-34.4 76.842-76.835 76.842z m278.838 0c-42.435 0-76.84-34.402-76.84-76.842 0-42.439 34.405-76.839 76.84-76.839 42.439 0 76.841 34.399 76.841 76.839-0.001 42.439-34.402 76.842-76.841 76.842z m0 0" fill="#8a8a8a" p-id="3418"></path></svg>