<?xml version="1.0" standalone="no"?><!DOCTYPE svg PUBLIC "-//W3C//DTD SVG 1.1//EN" "http://www.w3.org/Graphics/SVG/1.1/DTD/svg11.dtd"><svg t="1701936799188" class="icon" viewBox="0 0 1024 1024" version="1.1" xmlns="http://www.w3.org/2000/svg" p-id="3130" xmlns:xlink="http://www.w3.org/1999/xlink" width="128" height="128"><path d="M938.666667 564.565333A277.333333 277.333333 0 0 0 633.429333 1024H170.666667a85.333333 85.333333 0 0 1-85.333334-85.333333V85.333333a85.333333 85.333333 0 0 1 85.333334-85.333333h682.666666a85.333333 85.333333 0 0 1 85.333334 85.333333v479.232zM256 224h518.485333a32 32 0 1 0 0-64H256a32 32 0 0 0 0 64z m0 170.666667h236.330667a32 32 0 0 0 0-64H256a32 32 0 0 0 0 64zM810.666667 1024a213.333333 213.333333 0 1 1 0-426.666667 213.333333 213.333333 0 0 1 0 426.666667z m30.421333-245.333333V725.333333a32 32 0 1 0-64 0v85.333334c0 17.664 14.336 32 32 32h85.333333a32 32 0 1 0 0-64h-53.333333z" fill="#8a8a8a" p-id="3131"></path></svg>