<svg t="1677503147790" class="icon" viewBox="0 0 1024 1024" version="1.1" xmlns="http://www.w3.org/2000/svg" p-id="5919" width="64" height="64"><path d="M820.244898 459.755102H203.755102V177.632653c0-45.97551 37.616327-83.591837 83.591837-83.591837h449.306122c45.97551 0 83.591837 37.616327 83.591837 83.591837v282.122449zM245.55102 417.959184h532.89796V177.632653c0-22.987755-18.808163-41.795918-41.795919-41.795918H287.346939c-22.987755 0-41.795918 18.808163-41.795919 41.795918v240.326531zM736.653061 929.959184H287.346939c-45.97551 0-83.591837-37.616327-83.591837-83.591837v-114.938776h616.489796v114.938776c0 45.97551-37.616327 83.591837-83.591837 83.591837z m-491.102041-156.734694v73.142857c0 22.987755 18.808163 41.795918 41.795919 41.795918h449.306122c22.987755 0 41.795918-18.808163 41.795919-41.795918v-73.142857H245.55102z" fill="#1296db" p-id="5920"></path><path d="M846.367347 773.22449H177.632653c-45.97551 0-83.591837-37.616327-83.591837-83.591837V501.55102c0-45.97551 37.616327-83.591837 83.591837-83.591836h668.734694c45.97551 0 83.591837 37.616327 83.591837 83.591836v188.081633c0 45.97551-37.616327 83.591837-83.591837 83.591837zM177.632653 459.755102c-22.987755 0-41.795918 18.808163-41.795918 41.795918v188.081633c0 22.987755 18.808163 41.795918 41.795918 41.795918h668.734694c22.987755 0 41.795918-18.808163 41.795918-41.795918V501.55102c0-22.987755-18.808163-41.795918-41.795918-41.795918H177.632653zM694.857143 351.608163H329.142857c-11.493878 0-20.897959-9.404082-20.897959-20.897959s9.404082-20.897959 20.897959-20.897959h365.714286c11.493878 0 20.897959 9.404082 20.897959 20.897959s-9.404082 20.897959-20.897959 20.897959zM694.857143 243.983673H329.142857c-11.493878 0-20.897959-9.404082-20.897959-20.897959s9.404082-20.897959 20.897959-20.897959h365.714286c11.493878 0 20.897959 9.404082 20.897959 20.897959s-9.404082 20.897959-20.897959 20.897959z" fill="#1296db" p-id="5921"></path><path d="M254.432653 670.302041l-38.138775-136.359184H229.877551l23.510204 85.681633c3.657143 14.106122 6.791837 26.122449 8.881633 36.571428 1.567347-8.359184 5.22449-20.897959 9.92653-37.616326l25.6-84.636735h11.493878l25.077551 84.114286c4.179592 14.106122 7.314286 27.167347 9.926531 38.138775 2.612245-11.493878 5.22449-23.510204 8.881632-36.571428l24.555102-85.681633h13.583674l-40.228572 136.359184h-13.583673L310.857143 579.918367c-3.134694-10.971429-5.746939-21.942857-7.836735-31.346938-1.567347 8.359184-4.179592 18.808163-7.836735 31.346938l-27.167346 90.383674h-13.583674z" fill="#1296db" p-id="5922"></path><path d="M351.085714 675.526531h-13.583673c-2.089796 0-4.179592-1.567347-5.22449-3.657143l-26.644898-90.383674c-1.044898-3.134694-2.089796-6.791837-2.612245-9.92653-1.044898 3.134694-1.567347 6.269388-2.612245 9.92653l-27.167347 90.383674c-0.522449 2.089796-2.612245 3.657143-5.224489 3.657143h-14.106123c-2.089796 0-4.179592-1.567347-5.22449-3.657143l-38.138775-136.359184c-0.522449-1.567347 0-3.134694 1.044898-4.702041 1.044898-1.567347 2.612245-2.089796 4.179592-2.089796h13.583673c2.612245 0 4.179592 1.567347 5.22449 3.657143l23.510204 85.681633c1.567347 5.746939 2.612245 10.971429 4.179592 15.673469 1.567347-5.22449 3.134694-10.971429 5.22449-17.240816l25.6-84.636735c0.522449-2.089796 2.612245-3.657143 5.224489-3.657143h11.493878c2.089796 0 4.179592 1.567347 5.22449 3.657143l25.077551 84.114286c1.567347 5.746939 3.134694 11.493878 4.702041 16.718367 1.044898-4.702041 2.612245-9.926531 4.179591-15.15102l24.555102-85.681633c0.522449-2.089796 2.612245-3.657143 5.22449-3.657143h13.583674c1.567347 0 3.134694 0.522449 4.179592 2.089796 1.044898 1.567347 1.044898 3.134694 1.044897 4.702041l-40.228571 136.359184c-2.089796 2.612245-4.179592 4.179592-6.269388 4.179592z m-9.92653-10.44898h5.746938l37.093878-125.910204H381.387755l-23.510204 82.02449c-3.657143 12.538776-6.269388 24.555102-8.881633 36.048979-0.522449 2.612245-2.612245 4.179592-5.224489 4.179592-2.089796 0-3.657143-1.044898-4.702041-2.612245l2.089796 6.269388z m-83.069388 0h6.269388l2.089796-6.269388c-1.044898 1.567347-2.612245 2.089796-4.179592 2.089796-2.612245 0-4.702041-1.567347-5.22449-4.179592-2.089796-9.926531-5.22449-21.942857-8.881633-36.048979l-22.465306-82.02449h-2.612245l35.004082 126.432653z m51.2-113.371429c1.567347 8.359184 4.179592 17.763265 6.791837 27.167347l22.465306 76.8c-2.089796-10.44898-5.22449-22.465306-9.404082-35.52653l-19.853061-68.440817z m-13.061225 4.702041L276.897959 619.62449c-4.179592 14.628571-7.314286 26.122449-9.404081 33.959183l22.465306-75.232653c2.612245-7.836735 4.702041-15.673469 6.269387-21.942857zM303.020408 543.346939c1.567347 0 3.134694 0.522449 4.179592 2.089796l-2.089796-6.269388h-4.179592l-1.567347 5.746939c1.044898-1.044898 2.612245-1.567347 3.657143-1.567347zM541.779592 601.338776c0 14.106122-2.612245 26.644898-7.836735 37.616326-5.22449 10.971429-12.538776 18.808163-22.465306 25.077551-9.926531 5.746939-20.897959 8.881633-34.481633 8.881633-13.583673 0-25.077551-3.134694-34.481632-8.881633-9.926531-5.746939-17.240816-14.106122-21.942857-24.555102-5.22449-10.971429-7.836735-22.987755-7.836735-37.616327 0-21.942857 5.746939-38.661224 17.240816-51.2 11.493878-12.538776 27.167347-18.808163 47.542857-18.808163 13.061224 0 24.555102 2.612245 34.481633 8.359184 9.926531 5.746939 17.240816 13.583673 22.465306 24.032653 4.702041 10.971429 7.314286 22.987755 7.314286 37.093878z m-13.583674 0c0-18.285714-4.702041-32.391837-13.583673-42.840817-8.881633-10.44898-21.420408-15.673469-37.616327-15.673469-16.195918 0-28.734694 5.22449-38.138775 15.673469-8.881633 10.44898-13.583673 24.555102-13.583674 43.363265 0 18.285714 4.702041 32.914286 13.583674 43.885715 9.404082 10.971429 21.420408 16.195918 37.616326 16.195918 16.195918 0 29.257143-5.22449 38.138776-15.673469 9.404082-10.971429 13.583673-25.6 13.583673-44.930612z" fill="#1296db" p-id="5923"></path><path d="M476.995918 677.616327c-14.106122 0-26.644898-3.134694-37.093877-9.404082-10.44898-6.269388-18.808163-15.15102-24.032653-27.167347-5.22449-11.493878-8.359184-24.555102-8.359184-39.706122 0-22.987755 6.269388-41.273469 18.285714-54.857143 12.538776-13.583673 29.779592-20.37551 51.2-20.375511 14.106122 0 26.644898 3.134694 37.093878 8.881633 10.44898 6.269388 18.808163 15.15102 24.555102 26.644898 5.746939 11.493878 8.359184 24.555102 8.359184 39.183674s-2.612245 28.212245-8.359184 39.706122c-5.746939 11.493878-14.106122 20.897959-24.555102 27.167347-10.44898 6.791837-22.987755 9.926531-37.093878 9.926531z m0.522449-140.538776c-18.808163 0-33.436735 5.746939-43.885714 16.718367-10.44898 11.493878-15.673469 27.167347-15.673469 47.542858 0 13.583673 2.612245 25.077551 7.314285 35.004081 4.702041 9.926531 11.493878 17.240816 20.375511 22.465306 8.881633 5.22449 19.330612 7.836735 31.869387 7.836735 12.016327 0 22.987755-2.612245 31.869388-7.836735 8.881633-5.22449 15.673469-13.061224 20.37551-22.465306 4.702041-9.926531 7.314286-21.942857 7.314286-35.004081s-2.612245-25.077551-7.314286-35.004082c-4.702041-9.404082-11.493878-17.240816-20.37551-21.942857-8.881633-4.702041-19.853061-7.314286-31.869388-7.314286z m-0.522449 129.567347c-17.240816 0-31.346939-6.269388-41.273469-17.763265-9.926531-11.493878-15.15102-27.689796-15.15102-47.020409 0-19.853061 5.22449-35.526531 14.628571-46.497959 9.926531-11.493878 24.032653-17.240816 41.795918-17.240816 17.763265 0 31.346939 5.746939 41.795919 17.763265 9.926531 11.493878 14.628571 27.167347 14.628571 46.497959 0 19.853061-4.702041 36.04898-14.628571 47.542858-9.404082 10.971429-23.510204 16.718367-41.795919 16.718367z m0.522449-118.595918c-14.628571 0-26.122449 4.702041-33.959183 13.583673-7.836735 9.404082-12.016327 22.465306-12.016327 39.706123s4.179592 30.82449 12.538776 40.228571c8.359184 9.404082 19.330612 14.106122 33.436734 14.106122 15.15102 0 26.122449-4.702041 33.959184-14.106122 7.836735-9.404082 12.016327-22.987755 12.016327-40.75102 0-16.718367-4.179592-30.302041-12.016327-39.706123-8.359184-8.359184-19.330612-13.061224-33.959184-13.061224z" fill="#1296db" p-id="5924"></path><path d="M664.555102 572.081633c0 10.44898-3.134694 18.808163-9.404082 25.6-6.269388 6.791837-15.15102 10.971429-25.6 12.538775l39.706123 60.604082h-15.67347l-37.616326-59.036735h-24.555102v59.036735h-13.061225v-136.359184h39.183674c14.628571 0 26.122449 3.134694 34.481633 9.926531 8.359184 6.269388 12.538776 15.673469 12.538775 27.689796z m-13.061224 0.522449c0-8.881633-3.134694-15.673469-8.881633-20.89796-6.269388-4.702041-14.628571-7.314286-25.6-7.314285h-25.077551v56.946939h26.122449c10.44898 0 18.808163-2.612245 25.077551-7.836735 5.22449-4.702041 8.359184-12.016327 8.359184-20.897959z" fill="#1296db" p-id="5925"></path><path d="M668.734694 675.526531h-15.67347c-1.567347 0-3.657143-1.044898-4.179591-2.612245l-36.04898-56.42449h-16.718367v53.812245c0 3.134694-2.089796 5.22449-5.22449 5.22449h-13.061225c-3.134694 0-5.22449-2.089796-5.224489-5.22449v-136.359184c0-3.134694 2.089796-5.22449 5.224489-5.22449h39.183674c16.195918 0 28.734694 3.657143 37.616326 11.493878 9.404082 7.836735 14.106122 18.808163 14.106123 32.391837 0 11.493878-3.657143 21.420408-10.971429 29.257142-5.746939 5.746939-12.538776 9.926531-20.897959 12.538776l35.526531 53.812245c1.044898 1.567347 1.044898 3.657143 0 5.22449 0.522449 1.044898-1.567347 2.089796-3.657143 2.089796z m-12.538776-10.44898h2.612245l-34.481632-52.244898c-1.044898-1.567347-1.044898-3.657143-0.522449-5.22449 0.522449-0.522449 1.044898-1.567347 1.567347-2.089796-2.612245 0.522449-5.746939 0.522449-8.359184 0.522449 1.044898 0.522449 2.612245 1.044898 3.134694 2.089796l36.048979 56.946939z m-72.620408 0h2.612245V611.265306c0-2.612245 2.089796-4.702041 4.179592-5.22449-2.612245-0.522449-4.179592-2.612245-4.179592-5.224489v-56.946939c0-3.134694 2.089796-5.22449 5.22449-5.22449h25.077551c12.538776 0 21.942857 2.612245 29.257143 8.359184 7.314286 5.746939 10.971429 14.106122 10.971428 25.077551 0 10.44898-3.657143 19.330612-10.971428 25.077551-2.612245 2.089796-5.22449 3.657143-8.359184 5.224489 5.746939-2.089796 10.44898-4.702041 14.106123-8.881632 5.22449-5.746939 8.359184-13.061224 8.359183-21.942857 0-10.44898-3.134694-18.285714-10.448979-24.032653-7.314286-5.746939-17.763265-8.881633-31.346939-8.881633h-33.959184v126.432653z m13.061225-68.963265h20.897959c9.404082 0 16.718367-2.089796 21.420408-6.269388 4.702041-4.179592 7.314286-9.926531 7.314286-17.240816s-2.089796-13.061224-7.314286-16.718368c-5.22449-4.179592-12.538776-6.269388-22.465306-6.269387h-19.853061v46.497959z" fill="#1296db" p-id="5926"></path><path d="M808.228571 600.816327c0 14.106122-2.612245 26.644898-7.836734 37.093877s-13.061224 18.808163-22.987755 24.032653c-9.926531 5.746939-21.420408 8.359184-33.959184 8.359184h-42.318367v-136.359184h37.616326c22.465306 0 39.706122 5.746939 51.722449 17.240816 12.016327 10.971429 17.763265 27.689796 17.763265 49.632654z m-13.061224 0c0-37.093878-18.808163-55.902041-56.946939-55.902041h-24.555102v114.416326h27.689796c16.718367 0 29.779592-5.22449 39.183674-15.673469 9.926531-9.926531 14.628571-24.555102 14.628571-42.840816z" fill="#1296db" p-id="5927"></path><path d="M743.444898 675.526531h-42.318367c-3.134694 0-5.22449-2.089796-5.22449-5.22449v-136.359184c0-3.134694 2.089796-5.22449 5.22449-5.22449h37.616326c24.032653 0 42.840816 6.269388 55.379592 18.285715 13.061224 12.538776 19.330612 30.302041 19.330612 53.289796 0 15.15102-3.134694 28.212245-8.359183 39.706122-5.746939 11.493878-14.106122 20.37551-25.077551 26.644898-10.44898 6.269388-22.987755 8.881633-36.571429 8.881633z m-37.616327-10.44898h37.093878c12.016327 0 22.465306-2.612245 31.869388-7.836735 8.881633-5.22449 15.673469-12.538776 20.37551-21.942857 4.702041-9.926531 7.314286-21.420408 7.314286-35.004081 0-20.37551-5.22449-35.526531-16.195919-45.975511-10.971429-10.44898-27.167347-15.673469-48.065306-15.673469h-32.391837v126.432653z m35.526531-0.522449h-27.689796c-3.134694 0-5.22449-2.089796-5.22449-5.22449v-114.416326c0-3.134694 2.089796-5.22449 5.22449-5.22449h24.555102c40.75102 0 62.171429 20.897959 62.171429 61.126531 0 19.853061-5.22449 35.526531-15.67347 47.020408-10.44898 10.971429-25.077551 16.718367-43.363265 16.718367z m-22.465306-10.44898h22.465306c15.15102 0 26.644898-4.702041 35.526531-13.583673 8.359184-9.404082 13.061224-22.465306 13.061224-39.706122 0-34.481633-16.195918-50.677551-51.722449-50.677551h-19.330612v103.967346z" fill="#1296db" p-id="5928"></path></svg>