<svg t="1709550269341" class="icon" viewBox="0 0 1024 1024" version="1.1" xmlns="http://www.w3.org/2000/svg" p-id="4282"
    width="32" height="32">
    <path
        d="M512 953.6c243.2 0 441.6-198.4 441.6-441.6S755.2 70.4 512 70.4 70.4 268.8 70.4 512s198.4 441.6 441.6 441.6zM512 1024c-281.6 0-512-230.4-512-512s230.4-512 512-512 512 230.4 512 512-230.4 512-512 512z"
        p-id="4283"></path>
    <path
        d="M512 601.6l-102.4 57.6 19.2-115.2-83.2-89.6 115.2-19.2 51.2-102.4 51.2 108.8 115.2 19.2-83.2 76.8 19.2 115.2L512 601.6zM384 832h-25.6l-19.2-25.6-19.2 25.6h-19.2l32-38.4-25.6-38.4h25.6l12.8 19.2 12.8-19.2H384l-25.6 38.4 25.6 38.4z m83.2 0H448l-19.2-25.6-19.2 25.6H384l32-38.4-25.6-38.4h25.6l12.8 19.2 12.8-19.2h25.6l-25.6 38.4c-6.4 0 25.6 38.4 25.6 38.4z m256 0H704l-19.2-25.6-19.2 25.6H640l32-38.4-25.6-38.4h25.6l12.8 19.2 12.8-19.2h25.6l-25.6 38.4 25.6 38.4zM640 832h-25.6l-19.2-25.6-19.2 25.6h-19.2l32-38.4-25.6-38.4h25.6l12.8 19.2 12.8-19.2h25.6l-25.6 38.4 25.6 38.4z m-89.6 0h-19.2l-19.2-25.6-19.2 25.6h-19.2l32-38.4-25.6-38.4h25.6l6.4 25.6 12.8-19.2h25.6l-25.6 38.4 25.6 32zM787.2 486.4h25.6l19.2 32 25.6-32h25.6l-38.4 51.2 38.4 57.6h-25.6l-25.6-44.8-25.6 38.4h-25.6l38.4-57.6-32-44.8z m-646.4 0h25.6l25.6 32 25.6-32h25.6l-44.8 44.8 38.4 57.6h-19.2L192 550.4l-32 38.4h-25.6l38.4-57.6c6.4 0-32-44.8-32-44.8zM755.2 320h25.6l25.6 32 19.2-32h25.6l-38.4 51.2 38.4 57.6H832l-32-44.8-25.6 38.4h-25.6l38.4-57.6-32-44.8zM172.8 320h25.6l25.6 32 19.2-32h25.6l-38.4 51.2 38.4 57.6h-19.2L217.6 384l-25.6 44.8h-25.6l38.4-57.6-32-51.2zM640 192h25.6l25.6 32 19.2-32h25.6l-38.4 51.2 38.4 57.6h-25.6l-25.6-44.8-25.6 38.4h-25.6l38.4-57.6L640 192zM294.4 192H320l25.6 32 19.2-32h25.6l-32 51.2 38.4 57.6h-25.6L345.6 256l-25.6 38.4h-25.6l38.4-57.6-38.4-44.8z m166.4-51.2h25.6l25.6 32 25.6-32h25.6l-38.4 51.2 38.4 57.6h-25.6L512 204.8l-25.6 38.4h-25.6l38.4-51.2-38.4-51.2z"
        p-id="4284"></path>
</svg>