<?xml version="1.0" standalone="no"?><!DOCTYPE svg PUBLIC "-//W3C//DTD SVG 1.1//EN" "http://www.w3.org/Graphics/SVG/1.1/DTD/svg11.dtd"><svg t="1709630689220" class="icon" viewBox="0 0 1024 1024" version="1.1" xmlns="http://www.w3.org/2000/svg" p-id="10548" id="mx_n_1709630689220" xmlns:xlink="http://www.w3.org/1999/xlink" width="200" height="200"><path d="M386.194286 155.428571c0 45.421714-37.302857 82.285714-83.382857 82.285715C256.731429 237.714286 219.428571 200.850286 219.428571 155.428571S256.731429 73.142857 302.811429 73.142857c46.08 0 83.382857 36.864 83.382857 82.285714zM386.194286 512c0 45.421714-37.302857 82.285714-83.382857 82.285714C256.731429 594.285714 219.428571 557.421714 219.428571 512s37.302857-82.285714 83.382858-82.285714c46.08 0 83.382857 36.864 83.382857 82.285714z m0 356.571429c0 45.421714-37.302857 82.285714-83.382857 82.285714C256.731429 950.857143 219.428571 913.993143 219.428571 868.571429s37.302857-82.285714 83.382858-82.285715c46.08 0 83.382857 36.864 83.382857 82.285715z m389.12-713.142858c0 45.421714-37.302857 82.285714-83.382857 82.285715-46.08 0-83.382857-36.864-83.382858-82.285715S645.851429 73.142857 691.931429 73.142857c46.08 0 83.382857 36.864 83.382857 82.285714zM775.314286 512c0 45.421714-37.302857 82.285714-83.382857 82.285714-46.08 0-83.382857-36.864-83.382858-82.285714s37.302857-82.285714 83.382858-82.285714c46.08 0 83.382857 36.864 83.382857 82.285714z m0 356.571429c0 45.421714-37.302857 82.285714-83.382857 82.285714-46.08 0-83.382857-36.864-83.382858-82.285714s37.302857-82.285714 83.382858-82.285715c46.08 0 83.382857 36.864 83.382857 82.285715z" fill="inherit" p-id="10549"></path></svg>