<?xml version="1.0" standalone="no"?><!DOCTYPE svg PUBLIC "-//W3C//DTD SVG 1.1//EN" "http://www.w3.org/Graphics/SVG/1.1/DTD/svg11.dtd"><svg class="icon" width="32px" height="32.00px" viewBox="0 0 1024 1024" version="1.1" xmlns="http://www.w3.org/2000/svg"><path fill="inherit" d="M511.917 90.125c107.536 0 194.712 87.175 194.712 194.712 0 66.756-33.595 125.665-84.8 160.744l24.62 131.322h125.084c71.69 0 129.807 58.117 129.807 129.809v129.807H122.494V706.712c0-71.692 58.117-129.808 129.808-129.808l125.082-0.001 24.621-131.32c-50.38-34.516-83.713-92.099-84.774-157.526l-0.025-3.22c0-107.537 87.175-194.712 194.71-194.712z m0 64.904c-70.974 0-128.645 56.96-129.79 127.66l-0.017 2.019 0.02 2.466 0.024 1.106c1.08 41.635 21.877 79.536 55.499 103.043l1.034 0.715 34.907 23.915-42.344 225.853-178.948 0.002c-35.487 0-64.323 28.48-64.895 63.83l-0.01 1.074v64.903h649.04v-64.903c0-35.487-28.481-64.322-63.832-64.895l-1.073-0.009-178.95-0.002-42.341-225.853 34.906-23.915c35.185-24.105 56.578-63.794 56.578-107.201 0-71.692-58.117-129.808-129.808-129.808z m356.972 713.942c17.922 0 32.45 14.53 32.45 32.452 0 17.923-14.528 32.452-32.451 32.452H154.946c-17.923 0-32.452-14.53-32.452-32.452 0-17.922 14.53-32.452 32.452-32.452h713.942z"  /></svg>