<?xml version="1.0" standalone="no"?><!DOCTYPE svg PUBLIC "-//W3C//DTD SVG 1.1//EN" "http://www.w3.org/Graphics/SVG/1.1/DTD/svg11.dtd"><svg class="icon" width="200px" height="133.33px" viewBox="0 0 1536 1024" version="1.1" xmlns="http://www.w3.org/2000/svg"><path fill="inherit" d="M1408 0a128 128 0 0 1 127.68 118.4L1536 128v768a128 128 0 0 1-118.4 127.68L1408 1024H128a128 128 0 0 1-127.68-118.4L0 896V128A128 128 0 0 1 118.4 0.32L128 0h1280z m0 96H128a32 32 0 0 0-31.488 26.24L96 128v768a32 32 0 0 0 26.24 31.488L128 928h1280a32 32 0 0 0 31.488-26.24L1440 896V128a32 32 0 0 0-26.24-31.488L1408 96z"  /><path fill="inherit" d="M1266.752 448h-229.504a32 32 0 0 0-22.592 54.656l114.688 114.688a32 32 0 0 0 45.312 0l114.688-114.688A32 32 0 0 0 1266.752 448z"  /></svg>