<?xml version="1.0" standalone="no"?><!DOCTYPE svg PUBLIC "-//W3C//DTD SVG 1.1//EN" "http://www.w3.org/Graphics/SVG/1.1/DTD/svg11.dtd"><svg t="1680765320555" class="icon" viewBox="0 0 1024 1024" version="1.1" xmlns="http://www.w3.org/2000/svg" p-id="2825" xmlns:xlink="http://www.w3.org/1999/xlink" width="128" height="128"><path d="M841.922298 89.128417L549.846066 5.419971a138.510378 138.510378 0 0 0-76.481818 0L181.890235 89.128417A120.443807 120.443807 0 0 0 90.352941 204.754472v425.16664A408.304506 408.304506 0 0 0 511.906266 1023.772361a408.304506 408.304506 0 0 0 421.553326-393.851249V204.754472a120.443807 120.443807 0 0 0-91.537294-115.626055zM198.752368 146.941445l291.474013-83.708446a78.288475 78.288475 0 0 1 42.757552 0l292.076232 83.708446a60.221904 60.221904 0 0 1 48.177523 60.221903v46.973085a151.156978 151.156978 0 0 0-46.370866-23.486542L556.470475 143.93035a149.350321 149.350321 0 0 0-88.526198 0l-271.600785 84.310665a151.156978 151.156978 0 0 0-45.768647 23.486542V204.754472a60.221904 60.221904 0 0 1 48.177523-57.813027z m674.48532 481.775229A348.684822 348.684822 0 0 1 511.906266 963.550458a348.684822 348.684822 0 0 1-361.331421-333.629346V374.58024a90.332855 90.332855 0 0 1 63.835218-89.128417l270.998566-83.708446a88.526198 88.526198 0 0 1 52.995275 0l270.998566 83.708446A90.332855 90.332855 0 0 1 873.237688 372.171364v120.443807z" fill="#1e8df9" p-id="2826"></path><path d="M699.196387 402.884535l-219.809949 274.611881-156.576949-156.57695a30.110952 30.110952 0 0 0-42.757551 42.757552l180.66571 180.66571a30.110952 30.110952 0 0 0 16.862133 6.022191 30.110952 30.110952 0 0 0 12.044381 0h3.613314l6.022191-3.613314 240.887614-301.109518a30.110952 30.110952 0 0 0-46.973085-37.337581z" fill="#1e8df9" p-id="2827"></path></svg>