<svg t="1721615942668" class="icon" viewBox="0 0 1024 1024" version="1.1" xmlns="http://www.w3.org/2000/svg" p-id="5212"
  width="32" height="32">
  <path
    d="M274.56 798.997333l19.434667-25.130666-33.792 68.565333a18.133333 18.133333 0 0 0 11.562666 25.536l59.733334 16a18.133333 18.133333 0 0 0 17.28-4.48c20.522667-19.818667 35.626667-35.989333 45.290666-48.469333l19.456-25.130667-33.813333 68.565333a18.133333 18.133333 0 0 0 11.562667 25.536l84.48 22.634667a18.133333 18.133333 0 0 0 17.28-4.48c20.522667-19.84 35.626667-35.989333 45.269333-48.469333l19.456-25.130667-33.813333 68.565333A18.133333 18.133333 0 0 0 535.530667 938.666667l72.106666 19.328a18.133333 18.133333 0 0 0 17.28-4.48c20.522667-19.84 35.626667-36.010667 45.269334-48.490667l19.456-25.130667-33.813334 68.586667a18.133333 18.133333 0 0 0 11.584 25.514667l86.421334 23.338666 3.84-0.213333c13.269333-0.704 29.056-5.034667 43.84-12.8 29.781333-15.701333 48.170667-43.2 52.181333-78.250667 2.133333-18.517333 4.778667-38.549333 8.405333-63.530666 1.642667-11.221333 2.944-20.010667 6.229334-41.834667 11.050667-73.322667 14.634667-101.034667 17.130666-133.674667l0.938667-12.373333 2.837333-2.922667 12.330667-1.344a41.813333 41.813333 0 0 0 24.810667-11.221333c10.730667-10.24 14.805333-25.386667 11.093333-42.197333l-37.546667-171.584c-3.029333-13.696-11.264-27.946667-23.146666-39.829334-11.648-11.626667-25.92-20.138667-39.893334-23.893333L723.626667 331.306667l-2.261334-3.925334L774.250667 130.133333c8.32-31.061333-11.754667-63.744-44.970667-72.64l-79.509333-21.312c-33.194667-8.896-66.922667 9.365333-75.264 40.426667l-52.842667 197.269333-3.925333 2.261334-118.101334-31.637334c-13.994667-3.754667-30.634667-3.498667-46.506666 0.746667-16.256 4.352-30.506667 12.586667-39.957334 22.933333l-118.314666 129.792c-11.605333 12.714667-15.658667 27.84-11.52 42.090667 4.16 14.229333 15.850667 25.194667 32.896 30.528l13.610666 4.266667 2.133334 3.882666-3.626667 13.802667c-21.12 79.850667-52.885333 136.917333-85.717333 150.890667-47.530667 20.202667-72.938667 49.429333-78.421334 85.034666-5.034667 32.682667 9.28 67.114667 37.589334 91.541334l22.037333 8.341333 74.666667 20.010667a42.666667 42.666667 0 0 0 41.216-11.050667c15.274667-15.274667 26.88-28.032 34.837333-38.293333z m551.381333-396.565333c14.144 3.797333 29.952 19.2 32.768 32l34.56 157.781333a10.666667 10.666667 0 0 1-13.184 12.586667L240.64 433.493333a10.666667 10.666667 0 0 1-5.12-17.493333l108.8-119.36c8.832-9.685333 30.229333-15.146667 44.373333-11.349333l141.333334 37.866666a21.333333 21.333333 0 0 0 26.133333-15.082666l58.304-217.642667a21.333333 21.333333 0 0 1 26.133333-15.082667l77.056 20.650667a21.333333 21.333333 0 0 1 15.082667 26.133333l-58.325333 217.642667a21.333333 21.333333 0 0 0 15.082666 26.112l136.448 36.565333zM315.456 701.568c-33.664 45.141333-64.597333 79.082667-92.8 101.802667l-5.909333 4.778666-2.837334 0.597334-88.106666-24.106667-2.922667-3.2c-13.034667-14.165333-19.370667-31.04-16.981333-46.592 3.285333-21.333333 22.058667-39.338667 53.205333-52.586667 31.722667-13.482667 59.818667-47.104 82.922667-99.904 10.026667-22.954667 18.88-48.725333 26.389333-76.586666l3.882667-14.4 3.904-2.261334 566.165333 151.701334 2.346667 3.306666-0.789334 12.224c-1.984 30.592-30.336 229.397333-32.128 244.906667-2.346667 20.416-11.306667 34.986667-27.605333 44.394667a73.237333 73.237333 0 0 1-21.397333 8.106666l-5.013334 0.725334-60.373333-16.170667 11.242667-20.288c8.277333-14.976 22.656-43.84 43.093333-86.613333a21.12 21.12 0 0 0-9.962667-28.16l-3.136-1.493334a21.333333 21.333333 0 0 0-26.261333 6.485334c-33.642667 45.056-64.533333 78.912-92.672 101.546666l-5.909333 4.757334-2.837334 0.597333-52.544-14.08 11.114667-20.266667c3.562667-6.485333 7.04-13.013333 10.453333-19.626666 7.04-13.504 17.898667-35.797333 32.597334-66.816a21.290667 21.290667 0 0 0-9.984-28.309334l-3.029334-1.450666a21.333333 21.333333 0 0 0-26.368 6.442666c-33.6 45.013333-64.469333 78.826667-92.608 101.482667l-5.909333 4.757333-2.837333 0.597334-52.138667-13.973334 11.114667-20.266666c3.242667-5.888 6.72-12.416 10.453333-19.626667 6.997333-13.461333 17.962667-35.946667 32.896-67.434667a20.970667 20.970667 0 0 0-10.112-28.010666l-3.328-1.536a21.333333 21.333333 0 0 0-26.069333 6.613333c-33.642667 45.056-64.554667 78.976-92.778667 101.696l-5.909333 4.757333-2.837334 0.597334-32.64-8.746667 11.093334-20.245333c3.541333-6.506667 7.04-13.034667 10.453333-19.626667 6.976-13.482667 17.941333-35.968 32.874667-67.456a21.056 21.056 0 0 0-10.069334-28.074667l-3.242666-1.514666a21.333333 21.333333 0 0 0-26.154667 6.549333z"
    p-id="5213"></path>
</svg>
