<svg t="1716447342619" class="icon" viewBox="0 0 1024 1024" version="1.1" xmlns="http://www.w3.org/2000/svg" p-id="2501"
  width="32" height="32">
  <path
    d="M805.9 308.3v543.1H353.3V308.3h452.6m0-90.5H353.3c-50 0-90.5 40.5-90.5 90.5v543.1c0 50 40.5 90.5 90.5 90.5h452.6c50 0 90.5-40.5 90.5-90.5V308.3c0-50-40.5-90.5-90.5-90.5z"
    fill="#0070E0" p-id="2502"></path>
  <path
    d="M444.4 466.7V512H716v-45.3H444.4z m0 135.8H716v-45.3H444.4v45.3z m0 90.5h135.8v-45.3H444.4V693zM218.1 715.2V172.6h452.3V82.1H218.1c-50 0-90.5 40.5-90.5 90.5v542.6h90.5z"
    fill="#99C6F3" p-id="2503"></path>
</svg>
