<?xml version="1.0" standalone="no"?>
<!DOCTYPE svg PUBLIC "-//W3C//DTD SVG 1.1//EN" "http://www.w3.org/Graphics/SVG/1.1/DTD/svg11.dtd"><svg t="1702294146072"
  class="icon" viewBox="0 0 1024 1024" version="1.1" xmlns="http://www.w3.org/2000/svg" p-id="1729"
  xmlns:xlink="http://www.w3.org/1999/xlink" width="128" height="128">
  <path
    d="M563.2 759.1936V204.8h307.2a51.2 51.2 0 0 0 0-102.4H153.6a51.2 51.2 0 0 0 0 102.4h307.2v550.7584l-128-128a51.2 51.2 0 1 0-72.3968 72.448l217.1904 217.1904a51.2 51.2 0 0 0 72.448 0l217.1904-217.1904a51.2 51.2 0 1 0-72.3968-72.448L563.2 759.1936zM204.8 409.6h153.6a51.2 51.2 0 0 0 0-102.4H204.8a51.2 51.2 0 0 0 0 102.4z m460.8 0h153.6a51.2 51.2 0 0 0 0-102.4h-153.6a51.2 51.2 0 0 0 0 102.4z"
    fill="#666666" p-id="1730"></path>
</svg><svg t="1717666521014" class="icon" viewBox="0 0 1024 1024" version="1.1" xmlns="http://www.w3.org/2000/svg"
  p-id="2871" width="32" height="32">
  <path
    d="M871.104 952.704H149.696c-47.232 0-85.76-38.208-86.208-85.44v-203.2a46.08 46.08 0 1 1 92.288 0v202.368l709.312-5.952v-183.232a46.08 46.08 0 1 1 92.352 0v190.016c0 0.832 0 1.536-0.128 2.24a86.4 86.4 0 0 1-86.208 83.2z"
    p-id="2872" fill="#8a8a8a"></path>
  <path
    d="M466.176 196.8V107.136c0-22.144 20.608-40.064 46.08-40.064 25.408 0 45.952 17.92 45.952 40.064v89.664m0 96.256v295.04c0 22.144-20.544 40-45.952 40-25.408 0-46.08-17.856-46.08-40v-296.32"
    p-id="2873" fill="#8a8a8a"></path>
  <path
    d="M707.264 508.288c10.56 0 13.696 6.656 6.912 14.784l-189.76 229.888a15.36 15.36 0 0 1-24.448 0L310.208 523.072c-6.72-8.128-3.584-14.784 6.976-14.784h390.08z"
    p-id="2874" fill="#8a8a8a"></path>
</svg>