<?xml version="1.0" standalone="no"?><!DOCTYPE svg PUBLIC "-//W3C//DTD SVG 1.1//EN" "http://www.w3.org/Graphics/SVG/1.1/DTD/svg11.dtd"><svg t="1701936562657" class="icon" viewBox="0 0 1024 1024" version="1.1" xmlns="http://www.w3.org/2000/svg" p-id="2310" xmlns:xlink="http://www.w3.org/1999/xlink" width="128" height="128"><path d="M318 881.077H140.211c-33.689 0-61.098-27.812-61.098-62V160.611c0-34.187 27.409-62 61.098-62h617.271c33.688 0 61.097 27.813 61.097 62V338h-100V198.611H179.113v582.466H318v100z" fill="#8a8a8a" p-id="2311"></path><path d="M282.604 328.598H567.59v100H282.604zM283 509.09h285v100H283zM755 467l108 108-319 319-151 39 45-137zM804 426l105 100s57-16 64-81c0 0-14-71-92-85 0 0-54 9-77 66z" fill="#8a8a8a" p-id="2312"></path></svg>