<?xml version="1.0" standalone="no"?><!DOCTYPE svg PUBLIC "-//W3C//DTD SVG 1.1//EN" "http://www.w3.org/Graphics/SVG/1.1/DTD/svg11.dtd"><svg class="icon" width="200px" height="200.00px" viewBox="0 0 1024 1024" version="1.1" xmlns="http://www.w3.org/2000/svg"><path fill="#707070" d="M545.595077 237.922462h-63.015385v283.56923l-189.046154 161.476923 43.323077 47.261539 212.676923-177.230769-3.938461-315.076923z m248.123077 354.461538c-86.646154 0-161.476923 51.2-192.984616 129.969231s-15.753846 169.353846 47.261539 228.430769c59.076923 59.076923 149.661538 78.769231 228.430769 47.261538s129.969231-110.276923 129.969231-192.984615c-3.938462-118.153846-98.461538-212.676923-212.676923-212.676923z m0 350.523077c-15.753846 0-27.569231-7.876923-31.507692-23.630769-3.938462-11.815385-3.938462-27.569231 7.876923-39.384616 11.815385-11.815385 23.630769-11.815385 39.384615-7.876923 11.815385 3.938462 23.630769 19.692308 23.630769 31.507693-3.938462 23.630769-19.692308 39.384615-39.384615 39.384615z m23.630769-102.4h-47.261538l-11.815385-177.230769h70.892308l-11.815385 177.230769zM565.287385 942.907077c-15.753846 3.938462-35.446154 3.938462-51.2 3.938461-232.369231 0-421.415385-189.046154-421.415385-421.415384s185.107692-421.415385 417.476923-421.415385 421.415385 189.046154 421.415385 421.415385c0 15.753846 0 35.446154-3.938462 51.2 23.630769 15.753846 43.323077 31.507692 63.015385 51.2 47.261538-212.676923-55.138462-429.292308-244.184616-535.630769s-429.292308-70.892308-582.892307 82.707692-189.046154 389.907692-82.707693 582.892308 322.953846 291.446154 535.63077 244.184615c-19.692308-15.753846-39.384615-39.384615-51.2-59.076923z" /></svg>