<?xml version="1.0" standalone="no"?><!DOCTYPE svg PUBLIC "-//W3C//DTD SVG 1.1//EN" "http://www.w3.org/Graphics/SVG/1.1/DTD/svg11.dtd"><svg t="1708828747867" class="icon" viewBox="0 0 1024 1024" version="1.1" xmlns="http://www.w3.org/2000/svg" p-id="3138" xmlns:xlink="http://www.w3.org/1999/xlink" width="200" height="200"><path d="M511.910352 1024H17.655172V135.329186a38.481296 38.481296 0 0 1 25.913093-36.433667L471.169604 1.880288a49.778557 49.778557 0 0 1 37.069138 4.024649A15.886774 15.886774 0 0 1 511.910352 18.049493V1024z" fill="#3365FC" p-id="3139"></path><path d="M158.870938 388.529054m35.303942 0l141.215765 0q35.303941 0 35.303942 35.303942l0 0q0 35.303941-35.303942 35.303941l-141.215765 0q-35.303941 0-35.303942-35.303941l0 0q0-35.303941 35.303942-35.303942Z" fill="#FFFFFF" p-id="3140"></path><path d="M158.870938 600.352703m35.303942 0l141.215765 0q35.303941 0 35.303942 35.303941l0 0q0 35.303941-35.303942 35.303942l-141.215765 0q-35.303941 0-35.303942-35.303942l0 0q0-35.303941 35.303942-35.303941Z" fill="#FFFFFF" p-id="3141"></path><path d="M1006.165532 1024H582.518235v-706.078828l395.404144 92.990581a44.482966 44.482966 0 0 1 28.243153 29.584703V1024z m0 0" fill="#B1C4FC" p-id="3142"></path></svg>