<?xml version="1.0" standalone="no"?><!DOCTYPE svg PUBLIC "-//W3C//DTD SVG 1.1//EN" "http://www.w3.org/Graphics/SVG/1.1/DTD/svg11.dtd"><svg t="1708828662015" class="icon" viewBox="0 0 1024 1024" version="1.1" xmlns="http://www.w3.org/2000/svg" p-id="2985" xmlns:xlink="http://www.w3.org/1999/xlink" width="200" height="200"><path d="M148.72381 719.238095l-97.52381 156.038095c-4.87619 9.752381 0 21.942857 12.190476 21.942858l131.657143 7.314285c4.87619 0 7.314286 2.438095 9.752381 4.876191l80.457143 107.27619c7.314286 7.314286 19.504762 7.314286 24.380952 0l92.647619-153.6c4.87619-7.314286 2.438095-14.628571-4.87619-19.504762l-229.180953-129.219047c-7.314286-2.438095-14.628571 0-19.504761 4.87619zM875.27619 716.8l97.52381 156.038095c4.87619 9.752381 0 21.942857-12.190476 21.942857L828.952381 902.095238c-4.87619 0-7.314286 2.438095-9.752381 4.876191l-80.457143 107.27619c-7.314286 7.314286-19.504762 7.314286-24.380952 0l-92.647619-153.6c-4.87619-7.314286-2.438095-14.628571 4.87619-19.504762l229.180953-129.219047c7.314286-4.87619 14.628571-2.438095 19.504761 4.87619zM855.771429 185.295238L546.133333 9.752381c-21.942857-12.190476-51.2-12.190476-73.142857 0L165.790476 182.857143C143.847619 195.047619 129.219048 219.428571 129.219048 243.809524v348.647619c0 24.380952 14.628571 48.761905 36.571428 60.952381L475.428571 828.952381c21.942857 12.190476 51.2 12.190476 73.142858 0l307.2-170.666667c21.942857-12.190476 36.571429-36.571429 36.571428-60.952381V248.685714c0-26.819048-14.628571-51.2-36.571428-63.390476z m-146.285715 148.72381l-180.419047 260.87619c-4.87619 7.314286-14.628571 12.190476-24.380953 12.190476s-19.504762-4.87619-24.380952-12.190476l-173.104762-260.87619c-9.752381-12.190476-4.87619-31.695238 7.314286-39.009524 12.190476-7.314286 31.695238-4.87619 39.009524 7.314286l148.723809 224.304761 156.038095-226.742857c9.752381-12.190476 26.819048-17.066667 39.009524-7.314285 19.504762 12.190476 21.942857 29.257143 12.190476 41.447619z" fill="#F5B53A" p-id="2986"></path></svg>