<?xml version="1.0" standalone="no"?><!DOCTYPE svg PUBLIC "-//W3C//DTD SVG 1.1//EN" "http://www.w3.org/Graphics/SVG/1.1/DTD/svg11.dtd"><svg t="1708828617694" class="icon" viewBox="0 0 1031 1024" version="1.1" xmlns="http://www.w3.org/2000/svg" p-id="2679" xmlns:xlink="http://www.w3.org/1999/xlink" width="201.3671875" height="200"><path d="M515.854454 1024a39.070149 39.070149 0 0 1-38.953348-38.953348v-181.042546a38.953348 38.953348 0 0 1 77.906696 0v181.042546a39.070149 39.070149 0 0 1-38.953348 38.953348z" fill="#CBBCFD" p-id="2680"></path><path d="M876.946732 1024H154.762176a38.953348 38.953348 0 0 1 0-77.906696h722.184556a38.953348 38.953348 0 1 1 0 77.906696z" fill="#CBBCFD" p-id="2681"></path><path d="M0 0m107.048705 0l817.669899 0q107.048705 0 107.048705 107.048705l0 619.107107q0 107.048705-107.048705 107.048705l-817.669899 0q-107.048705 0-107.048705-107.048705l0-619.107107q0-107.048705 107.048705-107.048705Z" fill="#987EFB" p-id="2682"></path><path d="M515.854454 426.325995m-262.803695 0a262.803696 262.803696 0 1 0 525.607391 0 262.803696 262.803696 0 1 0-525.607391 0Z" fill="#FFFFFF" p-id="2683"></path><path d="M408.688947 574.664081l2.044029-24.703547 24.703547 15.242614-26.747576 9.460933zM450.328733 555.917418l-37.318125-20.965895 3.796053-39.245352 64.299305 35.5661-30.777233 24.645147zM487.004449 522.920954L422.237938 485.427626l105.822288-159.434242 65.116916 41.172579-106.172693 155.754991zM620.275123 325.467777l-21.608304 30.368427L536.937151 315.364435l19.797878-31.127638c8.52652-13.023383 20.265085-2.277632 20.265085-2.277632l39.478955 24.937151a11.680164 11.680164 0 0 1 4.029657 18.337858z" fill="#987EFB" p-id="2684"></path></svg>