<?xml version="1.0" standalone="no"?><!DOCTYPE svg PUBLIC "-//W3C//DTD SVG 1.1//EN" "http://www.w3.org/Graphics/SVG/1.1/DTD/svg11.dtd"><svg t="1708832842419" class="icon" viewBox="0 0 1024 1024" version="1.1" xmlns="http://www.w3.org/2000/svg" p-id="3290" xmlns:xlink="http://www.w3.org/1999/xlink" width="200" height="200"><path d="M958.144106 816.585043c0 78.526471-63.212694 142.190443-141.178393 142.190443H207.033263c-77.964676 0-141.178393-63.663972-141.178393-142.190443V202.254424c0-78.526471 63.212694-142.190443 141.178393-142.190443h609.93245c77.964676 0 141.178393 63.663972 141.178393 142.190443v614.330619z" fill="#F08834" p-id="3291"></path><path d="M791.583626 387.658064c-26.822902-49.841152-64.795748-89.221044-113.453958-118.201076-28.933983-17.231453-59.948347-29.190833-92.913133-36.029588-27.677363-5.741771-55.623855-7.40055-83.829244-5.41329-42.710754 3.00852-82.950224 14.610766-120.652917 34.780132-49.683563 26.579355-89.103364 64.133669-118.222565 112.356973-21.058618 34.876322-34.543747 72.569806-40.10644 112.942306-1.657756 12.026918-2.012843 24.233937-2.987031 36.357046-0.143263 1.785669-0.410346 3.561106-0.620123 5.340635v3.109827c0.502443 7.601118 0.945535 15.20633 1.51654 22.801309 3.288906 43.772946 15.776312 84.815711 37.128618 123.105782 28.531823 51.163263 68.594261 90.895173 119.780038 119.325689 29.777187 16.539698 61.527308 27.730575 95.160313 33.178657 74.170257 12.015661 143.924947-0.654916 208.266347-39.564087 59.616796-36.051077 101.942787-87.107917 127.190821-152.098094 10.606569-27.301809 16.821107-55.647391 18.968004-84.898599 4.333702-59.106166-7.14984-114.923426-35.22527-167.093622z m-234.692206 325.544401c-6.128581 10.530844-15.375176 16.670681-27.221992 18.632359-10.667967 1.766226-21.276582 0.99977-31.033807-4.054339-12.496615-6.473435-20.261463-16.369829-20.043498-31.087019 0.099261-6.694469-0.240477-13.643742 1.409092-20.014846 3.080152-11.907191 11.896958-19.322068 23.180955-23.179932 12.338003-4.217045 24.991184-4.470825 37.045731 1.276063 13.292748 6.338359 20.570501 16.872273 20.587898 31.927153v5.90243c0.130983 6.560416-0.033769 13.909801-3.924379 20.598131z m92.103697-256.376065c-3.190669 17.955954-12.379958 32.766264-26.102494 44.252876-13.274328 11.112082-27.761274 20.761859-41.428552 31.420617-9.993608 7.7935-19.045775 16.767895-22.643719 29.346375-1.817392 6.354731-2.796696 13.354146-2.252297 19.902282 1.476631 17.752316-15.974833 36.598546-38.107923 34.732036-12.384052-1.043772-22.397103-5.655813-28.372188-16.696264-2.238994-4.13518-3.584642-9.299807-3.606131-14.002922-0.188288-40.310078 16.603143-72.124667 48.891524-96.009657 12.593829-9.317203 25.107841-18.687618 35.328623-30.816866 16.838503-19.980054 6.030343-52.806693-19.48375-58.182121-5.656837-1.192152-11.485589-1.564635-17.23657-2.313695-10.997472 0.667196-21.756513 1.598404-32.035623 5.802146-10.320043 4.222161-17.836227 11.759835-24.599258 20.22974-4.997827 6.260587-9.535167 12.843516-16.817014 16.954137-15.258519 8.614192-36.19127 4.659113-46.031383-9.269107-5.747911-8.136308-5.600555-17.336854-3.092431-26.466792 3.592828-13.078877 11.216459-23.882943 20.785395-33.181727 23.040762-22.388916 51.012837-34.341133 82.721003-37.959543 20.349467-2.321882 40.654932-2.080382 60.524469 3.241834 35.08303 9.395998 59.291384 30.710442 69.906139 66.051345 5.203512 17.318434 6.838755 35.034934 3.65218 52.965306z" fill="#FFFFFF" p-id="3292"></path></svg>