<?xml version="1.0" standalone="no"?><!DOCTYPE svg PUBLIC "-//W3C//DTD SVG 1.1//EN" "http://www.w3.org/Graphics/SVG/1.1/DTD/svg11.dtd"><svg class="icon" width="32px" height="32.00px" viewBox="0 0 1024 1024" version="1.1" xmlns="http://www.w3.org/2000/svg"><path fill="inherit" d="M251.48229981 474.78930664h174.77407837l40.05340575 105.59317016h65.53976441L375.27871704 179.85501099h-72.82122803L145.88665771 584.02197266h65.53976441l40.05340576-109.23349z m72.82205199-203.90899658c3.64279175-10.92178344 7.28311157-21.84439087 10.92507935-36.40896607h3.64279175c0 3.63949585 3.63949585 10.9234314 10.92178345 29.12667848 0 3.64279175 3.64279175 7.28146362 3.64279175 7.28146362 0 3.64279175 21.84439087 54.61880493 58.25830078 156.57083129H266.04769898c40.05175781-101.95202637 58.25830078-152.92803955 58.25830078-156.57083129z m0 0zM539.13265992 332.78222656h334.98605346v50.97601318H539.13265992v-50.97601318z m0 0zM145.88830567 634.99880982h728.23040771v50.97601318H145.88830567v-50.97601318z m-1e-8 0zM539.13265992 485.70779419h334.98605346v50.97601318H539.13265992v-50.97601318z m0 0zM145.88830567 784.28488159h728.23040771v50.97601318H145.88830567v-50.97601318z m-1e-8 0zM539.13265992 183.49780273h334.98605346v50.97518922H539.13265992V183.49780273z m0 0z"  /></svg>