<?xml version="1.0" standalone="no"?><!DOCTYPE svg PUBLIC "-//W3C//DTD SVG 1.1//EN" "http://www.w3.org/Graphics/SVG/1.1/DTD/svg11.dtd"><svg t="1715396397152" class="icon" viewBox="0 0 1024 1024" version="1.1" xmlns="http://www.w3.org/2000/svg" p-id="2287" width="32" height="32" xmlns:xlink="http://www.w3.org/1999/xlink"><path d="M317.226667 382.122667c17.92 17.92 17.92 47.018667 0 64.938666L252.288 512l-6.314667 6.656a183.68 183.68 0 0 0-0.213333 246.186667l6.528 6.869333 6.613333 6.314667a183.68 183.68 0 0 0 246.229334 0.213333l6.869333-6.528 64.938667-64.938667a45.909333 45.909333 0 0 1 64.938666 64.938667l-64.938666 64.938667a275.456 275.456 0 0 1-396.757334-382.122667l7.168-7.466667 64.938667-64.938666c17.92-17.92 46.976-17.92 64.938667 0z m354.816-34.730667l4.565333 4.565333a42.666667 42.666667 0 0 1 0 60.373334l-264.277333 264.277333a42.666667 42.666667 0 0 1-60.373334 0l-4.565333-4.565333a42.666667 42.666667 0 0 1 0-60.373334l264.277333-264.277333a42.666667 42.666667 0 0 1 60.373334 0z m164.608-160.042667a275.498667 275.498667 0 0 1 7.168 382.122667l-7.168 7.466667-64.938667 64.938666a45.909333 45.909333 0 0 1-64.938667-64.938666L771.712 512l6.314667-6.656a183.68 183.68 0 0 0 0.213333-246.186667l-6.528-6.869333-6.613333-6.314667a183.68 183.68 0 0 0-246.229334-0.213333L512 252.288l-64.938667 64.938667a45.909333 45.909333 0 0 1-64.938666-64.938667l64.938666-64.938667a275.456 275.456 0 0 1 389.589334 0z" fill="#9B9CB7" p-id="2288"></path></svg>