<?xml version="1.0" standalone="no"?><!DOCTYPE svg PUBLIC "-//W3C//DTD SVG 1.1//EN" "http://www.w3.org/Graphics/SVG/1.1/DTD/svg11.dtd"><svg t="1750673862268" class="icon" viewBox="0 0 1024 1024" version="1.1" xmlns="http://www.w3.org/2000/svg" p-id="1395" xmlns:xlink="http://www.w3.org/1999/xlink" width="256" height="256"><path d="M931.908267 215.466667c-127.266133-51.968-239.598933-114.688-332.612267-185.856a143.616 143.616 0 0 0-174.574933 0c-93.013333 71.150933-205.346133 133.888-332.629334 185.856a34.133333 34.133333 0 0 0-21.384533 31.5392v280.439466c0 242.722133 376.644267 496.520533 441.2928 496.520534 64.648533 0 441.2928-253.815467 441.2928-496.520534V247.005867a34.133333 34.133333 0 0 0-21.384533-31.5392zM550.485333 719.991467a34.133333 34.133333 0 0 1-68.266666 0v-34.133334a34.133333 34.133333 0 0 1 68.266666 0v34.133334z m0-160a34.133333 34.133333 0 0 1-68.266666 0v-238.933334a34.133333 34.133333 0 0 1 68.266666 0v238.933334z" fill="#8a8a8a" p-id="1396"></path></svg>