<svg t="1717666445283" class="icon" viewBox="0 0 1024 1024" version="1.1" xmlns="http://www.w3.org/2000/svg" p-id="2501"
  width="32" height="32">
  <path
    d="M644.3 324H390.4c-9.5 0-17.2-7.7-17.2-17.2s7.7-17.2 17.2-17.2h253.9c9.5 0 17.2 7.7 17.2 17.2s-7.8 17.2-17.2 17.2zM321.2 324h-72.4c-9.5 0-17.2-7.7-17.2-17.2s7.7-17.2 17.2-17.2h72.4c9.5 0 17.2 7.7 17.2 17.2s-7.7 17.2-17.2 17.2zM644.3 440.7H248.4c-9.5 0-17.2-7.7-17.2-17.2s7.7-17.2 17.2-17.2h395.9c9.5 0 17.2 7.7 17.2 17.2 0 9.4-7.8 17.2-17.2 17.2zM661.8 535c-78.4 0-141.9 63.5-141.9 141.9s63.5 141.9 141.9 141.9 141.9-63.5 141.9-141.9S740.2 535 661.8 535z m57.8 230.8l-57.8-30.4-57.8 30.4 11-64.4-46.8-45.6 64.6-9.4 28.9-58.6 28.9 58.6 64.6 9.4-46.8 45.6 11.2 64.4z"
    fill="#ffffff" p-id="2502"></path>
  <path
    d="M124.7 655.5c9.5 0 17.2-7.7 17.2-17.2V185.2c0-47.5 38.6-86.1 86.1-86.1h568c47.5 0 86.1 38.6 86.1 86.1V246c0 9.5 7.7 17.2 17.2 17.2s17.2-7.7 17.2-17.2v-60.8c0-66.4-54.1-120.5-120.5-120.5H228c-66.4 0-120.5 54.1-120.5 120.5v453.1c0 9.4 7.7 17.2 17.2 17.2zM899.3 366.5c-9.5 0-17.2 7.7-17.2 17.2v455.6c0 47.5-38.6 86.1-86.1 86.1H228c-47.5 0-86.1-38.6-86.1-86.1V776c0-9.5-7.7-17.2-17.2-17.2s-17.2 7.7-17.2 17.2v63.3c0 66.4 54.1 120.5 120.5 120.5h568c66.4 0 120.5-54.1 120.5-120.5V383.7c0-9.5-7.7-17.2-17.2-17.2z"
    fill="#ffffff" p-id="2503"></path>
</svg>