<svg t="1721629982243" class="icon" viewBox="0 0 1024 1024" version="1.1" xmlns="http://www.w3.org/2000/svg" p-id="3227"
  width="32" height="32">
  <path
    d="M853.333333 554.666667a42.666667 42.666667 0 0 1 42.368 37.674666L896 597.333333v192a42.666667 42.666667 0 0 1-37.674667 42.368L853.333333 832h-238.293333l33.792 33.834667a42.666667 42.666667 0 0 1 3.541333 56.32l-3.541333 4.010666a42.666667 42.666667 0 0 1-56.32 3.541334l-4.010667-3.541334-106.666666-106.666666a42.666667 42.666667 0 0 1-3.541334-56.32l3.541334-4.010667 106.666666-106.666667a42.666667 42.666667 0 0 1 63.872 56.32l-3.541333 4.010667-33.834667 33.834667h195.626667L810.666667 597.333333a42.666667 42.666667 0 0 1 37.674666-42.368L853.333333 554.666667zM256 896a85.333333 85.333333 0 0 1-85.333333-85.333333V170.666667a85.333333 85.333333 0 0 1 85.333333-85.333334h512a85.333333 85.333333 0 0 1 85.333333 85.333334v264.533333a42.666667 42.666667 0 0 1-85.333333 0V170.666667H256v640h85.333333a42.666667 42.666667 0 0 1 0 85.333333H256z"
    fill="#8a8a8a" p-id="3228"></path>
</svg>
