<?xml version="1.0" standalone="no"?><!DOCTYPE svg PUBLIC "-//W3C//DTD SVG 1.1//EN" "http://www.w3.org/Graphics/SVG/1.1/DTD/svg11.dtd"><svg class="icon" width="200px" height="200.00px" viewBox="0 0 1024 1024" version="1.1" xmlns="http://www.w3.org/2000/svg"><path fill="#707070" d="M762.2 811.5c-5.7 0-11.5-0.9-17-2.8l-272.5-90c-16.6-5.5-25.6-23.4-20.1-40s23.4-25.6 40-20.2l262.7 86.8 103.3-551.5-705.4 352.4 227.9 75.4c16.6 5.5 25.6 23.4 20.1 40s-23.3 25.7-40 20.1l-248.7-82.3c-20.9-6.9-35.5-25.6-37.1-47.6-1.6-22 10.1-42.6 29.9-52.5L846.5 129c18.6-9.3 40.4-7.3 57 5.2s24.5 32.9 20.7 53.3L815.6 767.2c-2.9 15.4-12.3 28.8-25.8 36.8-8.4 4.9-18 7.5-27.6 7.5z"  /><path fill="#707070" d="M482.6 931.1c-17.5 0-31.7-14.2-31.7-31.7V688.6c0-7 2.3-13.8 6.6-19.3L862.1 143c10.7-13.9 30.6-16.5 44.4-5.8 13.9 10.7 16.5 30.5 5.8 44.4l-398 517.8v200c0 17.5-14.2 31.7-31.7 31.7z"  /></svg>