<svg t="1721630135472" class="icon" viewBox="0 0 1024 1024" version="1.1" xmlns="http://www.w3.org/2000/svg" p-id="3470"
  width="32" height="32">
  <path
    d="M829.44 989.866667H194.56c-51.2 0-92.16-40.96-92.16-92.16V126.293333C102.4 75.093333 143.36 34.133333 194.56 34.133333h636.586667c51.2 0 92.16 40.96 92.16 92.16v769.706667c0 52.906667-42.666667 93.866667-93.866667 93.866667zM194.56 85.333333C170.666667 85.333333 151.893333 104.106667 151.893333 126.293333v769.706667c0 22.186667 18.773333 40.96 40.96 40.96h636.586667c22.186667 0 40.96-18.773333 40.96-40.96V126.293333c1.706667-22.186667-17.066667-40.96-40.96-40.96H194.56z"
    fill="#ffffff" p-id="3471"></path>
  <path
    d="M703.146667 716.8H320.853333c-13.653333 0-25.6-11.946667-25.6-25.6S307.2 665.6 320.853333 665.6h384c13.653333 0 25.6 11.946667 25.6 25.6s-11.946667 25.6-27.306666 25.6zM703.146667 832.853333H320.853333c-13.653333 0-25.6-11.946667-25.6-25.6s11.946667-25.6 25.6-25.6h384c13.653333 0 25.6 11.946667 25.6 25.6s-11.946667 25.6-27.306666 25.6z"
    fill="#ffffff" p-id="3472"></path>
  <path
    d="M512 583.68c-107.52 0-196.266667-88.746667-196.266667-196.266667S404.48 191.146667 512 191.146667s196.266667 88.746667 196.266667 196.266666S619.52 583.68 512 583.68z m0-341.333333c-80.213333 0-145.066667 64.853333-145.066667 145.066666s64.853333 145.066667 145.066667 145.066667 145.066667-64.853333 145.066667-145.066667-64.853333-145.066667-145.066667-145.066666z"
    fill="#ffffff" p-id="3473"></path>
  <path
    d="M523.946667 307.2l13.653333 42.666667c1.706667 5.12 6.826667 8.533333 11.946667 8.533333h44.373333c11.946667 0 17.066667 15.36 6.826667 22.186667l-35.84 25.6c-5.12 3.413333-6.826667 8.533333-5.12 13.653333l13.653333 42.666667c3.413333 11.946667-8.533333 20.48-18.773333 13.653333l-35.84-25.6c-5.12-3.413333-10.24-3.413333-13.653334 0l-35.84 25.6c-10.24 6.826667-22.186667-1.706667-18.773333-13.653333l13.653333-42.666667c1.706667-5.12 0-10.24-5.12-13.653333l-35.84-25.6c-10.24-6.826667-5.12-22.186667 6.826667-22.186667h44.373333c5.12 0 10.24-3.413333 11.946667-8.533333l13.653333-42.666667c3.413333-11.946667 20.48-11.946667 23.893334 0z"
    fill="#ffffff" p-id="3474"></path>
</svg>
