<svg t="1705651746074" class="icon" viewBox="0 0 1024 1024" version="1.1" xmlns="http://www.w3.org/2000/svg" p-id="6076" width="128" height="128"><path d="M801.408 117.184c-94.656 0-278.08-56.64-279.872-57.216L512 57.024l-9.472 2.944c-1.856 0.576-185.536 57.216-279.104 57.216-102.592 0-102.592 100.608-102.592 148.992v361.792c0 88.704 288.832 339.008 391.168 339.008 95.04 0 391.104-256.64 391.104-339.008V266.176c0.064-52.096 0.064-148.992-101.696-148.992zM512 902.976c-73.152 0-320.32-221.312-327.168-275.008V266.176c0-81.024 13.952-84.992 38.592-84.992 91.328 0 248.064-45.12 288.576-57.216 40.448 12.096 197.056 57.216 289.344 57.216 24.832 0 37.76 3.776 37.76 84.992l0.064 361.024c-8.448 56.704-268.352 275.776-327.168 275.776z" fill="#707070" p-id="6077"></path><path d="M683.584 373.184C683.584 278.592 606.656 201.6 512 201.6S340.416 278.592 340.416 373.184c0 83.648 60.224 153.28 139.584 168.32v201.216a32 32 0 0 0 64 0v-83.008h75.456a32 32 0 0 0 0-64H544v-54.208a171.648 171.648 0 0 0 139.584-168.32z m-279.168 0c0-59.328 48.256-107.584 107.584-107.584s107.584 48.256 107.584 107.584a107.648 107.648 0 0 1-215.168 0z" fill="#707070" p-id="6078"></path></svg>