<?xml version="1.0" standalone="no"?><!DOCTYPE svg PUBLIC "-//W3C//DTD SVG 1.1//EN" "http://www.w3.org/Graphics/SVG/1.1/DTD/svg11.dtd"><svg class="icon" width="200px" height="200.00px" viewBox="0 0 1024 1024" version="1.1" xmlns="http://www.w3.org/2000/svg"><path d="M716.8 786.432H311.296c-40.96 0-73.728-32.768-73.728-73.728 0-22.528 4.096-40.96 10.24-59.392 12.288-43.008 40.96-75.776 79.872-94.208 18.432-10.24 26.624-12.288 34.816-14.336 2.048 0 6.144-2.048 8.192-2.048 4.096-2.048 10.24-2.048 20.48-6.144l12.288-6.144c-4.096-8.192-10.24-18.432-14.336-32.768-12.288-12.288-18.432-28.672-20.48-49.152v-4.096c-2.048-10.24-4.096-32.768 6.144-53.248-2.048-12.288-2.048-22.528-2.048-30.72v-2.048c2.048-28.672 18.432-57.344 43.008-79.872 20.48-20.48 51.2-32.768 92.16-36.864h4.096c45.056 2.048 77.824 14.336 100.352 36.864 20.48 18.432 34.816 47.104 36.864 77.824v2.048c0 4.096 0 12.288-2.048 28.672 10.24 18.432 8.192 38.912 6.144 55.296v2.048c0 10.24-4.096 22.528-6.144 28.672-4.096 12.288-8.192 20.48-16.384 26.624-4.096 10.24-8.192 18.432-12.288 26.624 4.096 2.048 10.24 4.096 16.384 6.144 4.096 2.048 16.384 6.144 20.48 8.192 2.048 0 4.096 0 8.192 2.048s8.192 4.096 16.384 6.144l10.24 4.096c2.048 0 4.096 2.048 6.144 4.096 2.048 0 2.048 2.048 4.096 2.048 36.864 18.432 61.44 49.152 75.776 92.16v4.096l6.144 30.72v10.24c0 4.096 2.048 10.24 2.048 14.336 6.144 43.008-26.624 75.776-67.584 75.776z m-331.776-182.272c-2.048 0-2.048 2.048-4.096 2.048h-4.096c-4.096 2.048-8.192 2.048-22.528 8.192-24.576 10.24-40.96 30.72-47.104 57.344v2.048c-4.096 12.288-6.144 22.528-6.144 38.912 0 6.144 4.096 12.288 12.288 12.288H716.8c8.192 0 12.288-4.096 12.288-12.288v-4.096c0-4.096-2.048-6.144-2.048-10.24l-6.144-26.624c-10.24-28.672-24.576-45.056-47.104-55.296-2.048 0-4.096-2.048-6.144-4.096 0 0-2.048-2.048-4.096-2.048l-8.192-4.096c-4.096-2.048-6.144-2.048-8.192-4.096-8.192-2.048-18.432-4.096-34.816-12.288-8.192-4.096-14.336-6.144-20.48-8.192-6.144-2.048-14.336-6.144-16.384-6.144-14.336-4.096-22.528-16.384-22.528-30.72v-20.48c0-6.144 2.048-12.288 6.144-18.432 2.048-4.096 10.24-14.336 16.384-32.768 2.048-6.144 6.144-12.288 12.288-16.384 2.048-4.096 2.048-10.24 2.048-10.24v-4.096-4.096c0-6.144 2.048-20.48 0-22.528-6.144-6.144-8.192-14.336-6.144-22.528 2.048-18.432 2.048-28.672 2.048-32.768-2.048-14.336-8.192-28.672-18.432-36.864-12.288-12.288-30.72-18.432-59.392-20.48-24.576 2.048-40.96 8.192-53.248 20.48-12.288 12.288-22.528 26.624-24.576 38.912 0 8.192 0 18.432 2.048 30.72 2.048 8.192-2.048 16.384-6.144 22.528 0 0-2.048 4.096 0 18.432V440.32c2.048 10.24 4.096 12.288 6.144 14.336 6.144 4.096 10.24 12.288 12.288 18.432 2.048 14.336 8.192 24.576 14.336 32.768 4.096 6.144 6.144 12.288 6.144 18.432v22.528c0 12.288-8.192 24.576-20.48 28.672-2.048 0-4.096 2.048-8.192 4.096-6.144 2.048-14.336 6.144-22.528 10.24-14.336 10.24-22.528 12.288-28.672 14.336z m403.456 90.112z m-401.408-92.16s-2.048 2.048 0 0c-2.048 2.048 0 0 0 0z m272.384-59.392z m-2.048 0z" fill="#FF7323" /><path d="M122.88 407.552c-16.384 0-30.72-14.336-30.72-30.72V157.696c0-34.816 32.768-65.536 69.632-65.536h212.992c16.384 0 30.72 14.336 30.72 30.72s-14.336 30.72-30.72 30.72H161.792c-4.096 0-8.192 4.096-8.192 4.096v219.136c0 16.384-14.336 30.72-30.72 30.72zM901.12 407.552c-16.384 0-30.72-14.336-30.72-30.72V157.696c0-2.048-4.096-6.144-8.192-6.144H647.168c-16.384 0-30.72-14.336-30.72-30.72s14.336-30.72 30.72-30.72h215.04c36.864 0 69.632 30.72 69.632 67.584v219.136c0 16.384-14.336 30.72-30.72 30.72zM374.784 933.888H161.792c-36.864 0-69.632-30.72-69.632-67.584V647.168c0-16.384 14.336-30.72 30.72-30.72s30.72 14.336 30.72 30.72v219.136c0 2.048 4.096 6.144 8.192 6.144h212.992c16.384 0 30.72 14.336 30.72 30.72s-14.336 30.72-30.72 30.72zM862.208 933.888H647.168c-16.384 0-30.72-14.336-30.72-30.72s14.336-30.72 30.72-30.72h215.04c4.096 0 8.192-4.096 8.192-6.144V647.168c0-16.384 14.336-30.72 30.72-30.72s30.72 14.336 30.72 30.72v219.136c0 36.864-32.768 67.584-69.632 67.584z" fill="#533626" /></svg>