<?xml version="1.0" standalone="no"?><!DOCTYPE svg PUBLIC "-//W3C//DTD SVG 1.1//EN" "http://www.w3.org/Graphics/SVG/1.1/DTD/svg11.dtd"><svg t="1702284310112" class="icon" viewBox="0 0 1024 1024" version="1.1" xmlns="http://www.w3.org/2000/svg" p-id="1928" xmlns:xlink="http://www.w3.org/1999/xlink" width="128" height="128"><path d="M900.1 862.213c16.513 0 29.9 13.384 29.9 29.894 0 16.273-13.007 29.51-29.194 29.885l-0.706 0.008H62.9C46.387 922 33 908.616 33 892.107c0-16.274 13.007-29.51 29.194-29.885l0.706-0.009h837.2zM602.497 110.916c34.378-32.528 88.408-31.785 121.878 1.677l85.323 85.304c34.132 34.125 34.132 89.45 0 123.575l-307.368 307.3a259.908 259.908 0 0 1-97.329 61.31L217.413 756.23c-17.969 6.336-37.673-3.09-44.01-21.055a34.485 34.485 0 0 1-1.147-18.94l38.405-173.145a259.827 259.827 0 0 1 75.087-132.468z" fill="#8a8a8a" p-id="1929"></path></svg>