<?xml version="1.0" standalone="no"?><!DOCTYPE svg PUBLIC "-//W3C//DTD SVG 1.1//EN" "http://www.w3.org/Graphics/SVG/1.1/DTD/svg11.dtd"><svg t="1750650222156" class="icon" viewBox="0 0 1024 1024" version="1.1" xmlns="http://www.w3.org/2000/svg" p-id="5726" xmlns:xlink="http://www.w3.org/1999/xlink" width="256" height="256"><path d="M247.599 868.521c9.856 7.088 19.229 15.011 29.644 21.165 273.026 161.136 619.446 0.525 672.934-312.104 14.597-85.353 5.648-168.47-26.927-248.887-2.86-7.052-8.671-14.522-7.816-21.103 1.333-10.211 7.23-19.82 11.195-29.683 9.093 4.082 23.567 5.917 26.372 12.628 13.326 31.855 26.201 64.381 34.303 97.867 49.792 205.707-42.497 426.542-223.431 537.902-189.818 116.841-428.961 92.42-590.766-61.209-7.924-7.524-15.285-23.162-12.652-31.945 2.177-7.258 19.343-13.48 30.198-14.076 43.946-2.401 88.039-3.444 132.035-2.67 10.874 0.188 25.25 6.322 31.536 14.632 9.791 12.943-2.176 27.656-22.498 28.312-27.363 0.874-54.774 0.208-82.163 0.208l-1.964 8.963zM779.149 148.238c-30.229-15.745-59.385-34.129-90.842-46.815-267.725-108.011-562.434 57.06-611.708 342.09-14.462 83.654-5.27 165.086 25.763 244.103 2.754 7.02 8.209 15.915 5.985 21.255-3.415 8.209-11.814 18.663-19.211 19.625-6.905 0.904-19.76-7.764-22.227-14.899-12.652-36.64-26.358-73.49-33.22-111.442C-2.042 404.52 93.475 196.995 265.92 93.06 449.581-17.631 698.114 7.305 850.554 151.777c5.52 5.227 11.534 10.314 15.644 16.569 10.21 15.506 3.076 32.168-15.575 33.05-50.746 2.403-101.562 3.599-152.362 4.111-14.295 0.144-29.758-6.225-25.527-23.498 2.174-8.86 15.685-19.993 25.095-21.061 25.611-2.908 51.759-1.002 77.697-1.002 1.205-3.901 2.413-7.801 3.623-11.708z" fill="#707070" p-id="5727"></path><path d="M505.648 751.511c-55.875 0-111.749 0.008-167.622 0-39.41 0-39.408-0.012-39.447-40.74-0.008-7.624 0.486-15.3-0.298-22.843-0.489-4.705-1.802-12.291-4.679-13.353-37.702-13.938-17.905-44.729-17.401-67.125 0.404-17.867 19.414-24.818 38.246-26.118 38.954-2.671 74.003-16.896 104.971-40.503 45.125-34.396 48.804-79.007 8.298-118.766-35.804-35.141-58.365-74.626-49.711-126.417 9.654-57.779 52.466-102.174 104.828-110.084 56.823-8.582 109.921 17.848 135.99 67.692 25.988 49.679 17.411 111.494-21.383 153.205-7.496 8.051-15.63 15.506-22.98 23.686-26.973 29.96-26.773 69.072 1.956 97.691 33.057 32.917 74.188 49.268 120.255 53.755 35.695 3.482 65.026 58.32 38.362 79.285-29.071 22.842-20.287 47.036-22.425 72.219-1.38 16.251-10.608 18.623-24.099 18.553-60.949-0.315-121.906-0.139-182.861-0.137z m-0.536-103.697c62.632 0 125.265-0.358 187.886 0.239 16.407 0.157 23.326-5.472 21.927-22.171-1.39-16.597-11.544-19.971-25.81-21.391-46.775-4.666-87.372-23.517-123.828-53.326-39.972-32.68-46.577-104.532-6.701-139.723 9.484-8.368 18.286-17.69 26.405-27.398 31.861-38.137 33.053-94.239 3.311-134.09-28.578-38.294-78.537-52.22-122.399-34.12-45.208 18.653-70.138 64.773-64.147 115.015 4.154 34.837 27.09 56.849 49.031 80.475 40.612 43.728 38.503 98.882-5.579 139.038-35.503 32.341-78.105 50.091-125.886 54.25-17.109 1.489-23.382 9.203-23.482 25.959-0.108 18.532 11.777 17.274 23.925 17.263 61.782-0.032 123.564-0.012 185.347-0.02z m-0.647 80.457c53.217 0 106.466-0.972 159.654 0.436 24.301 0.647 24.688-12.585 25.086-30.375 0.416-18.683-4.477-27.527-25.452-27.369-105.594 0.805-211.199 0.913-316.787-0.07-22.84-0.217-25.833 9.939-25.962 29.068-0.134 19.604 3.925 29.313 26.338 28.746 52.346-1.319 104.746-0.425 157.123-0.436z" fill="#707070" p-id="5728"></path><path d="M492.804 239.262c1.918 1.639 8.775 4.761 9.309 8.727 0.542 4.043-4.111 10.492-8.249 13.192-44.917 29.329-46.792 34.269-32.509 85.481 1.335 4.794 0.559 12.568-2.518 15.445-2.465 2.304-11.322 1.073-14.913-1.717-14.425-11.202-19.114-50.175-9.972-74.098 9.14-23.919 36.519-47.288 58.852-47.03z" fill="#707070" p-id="5729"></path></svg>