<?xml version="1.0" standalone="no"?><!DOCTYPE svg PUBLIC "-//W3C//DTD SVG 1.1//EN" "http://www.w3.org/Graphics/SVG/1.1/DTD/svg11.dtd"><svg t="1702285173550" class="icon" viewBox="0 0 1024 1024" version="1.1" xmlns="http://www.w3.org/2000/svg" p-id="2173" xmlns:xlink="http://www.w3.org/1999/xlink" width="128" height="128"><path d="M510.08 224L258.56 424.96c-9.6 7.68-3.84 23.04 7.68 23.04h502.4c12.16 0 17.28-15.36 8.32-23.04L526.08 224c-4.48-3.84-10.88-3.84-16 0z" fill="#8a8a8a" p-id="2174"></path><path d="M769.28 451.2h-502.4c-7.04 0-12.8-4.48-15.36-10.88s0-13.44 5.12-17.92l251.52-201.6c5.76-4.48 14.08-4.48 19.84 0L778.88 422.4c5.12 4.48 7.04 11.52 5.12 17.92-1.92 6.4-8.32 10.88-14.72 10.88z m-256.64-224.64L260.48 427.52c-3.84 3.2-3.84 7.68-3.2 10.88 1.28 3.2 3.84 6.4 8.96 6.4h502.4c5.12 0 7.68-3.2 8.96-6.4 1.28-3.2 0.64-7.68-3.2-10.88l-250.88-201.6c-2.56-2.56-7.68-2.56-10.88 0.64z" fill="#8a8a8a" p-id="2175"></path><path d="M510.08 785.92l-251.52-201.6c-9.6-7.68-3.84-23.04 7.68-23.04h502.4c12.16 0 17.28 15.36 8.32 23.04l-250.88 201.6c-4.48 3.84-10.88 3.84-16 0z" fill="#8a8a8a" p-id="2176"></path><path d="M518.4 792.32c-3.84 0-7.04-1.28-10.24-3.84l-251.52-201.6c-5.12-4.48-7.68-11.52-5.12-17.92 2.56-6.4 8.32-10.88 15.36-10.88h502.4c7.04 0 12.8 4.48 15.36 10.88 2.56 6.4 0 13.44-5.12 17.92l-250.88 201.6c-3.2 2.56-7.04 3.84-10.24 3.84z m-5.76-8.32c3.84 2.56 8.32 2.56 12.16 0L775.04 582.4c3.84-3.2 3.84-7.68 3.2-10.88s-3.84-6.4-8.96-6.4h-502.4c-5.12 0-7.68 3.2-8.96 6.4-1.28 3.2-0.64 7.68 3.2 10.88l251.52 201.6z" fill="#8a8a8a" p-id="2177"></path></svg>