<?xml version="1.0" standalone="no"?><!DOCTYPE svg PUBLIC "-//W3C//DTD SVG 1.1//EN" "http://www.w3.org/Graphics/SVG/1.1/DTD/svg11.dtd"><svg t="1701849386412" class="icon" viewBox="0 0 1024 1024" version="1.1" xmlns="http://www.w3.org/2000/svg" p-id="2457" xmlns:xlink="http://www.w3.org/1999/xlink" width="128" height="128"><path d="M466.432088 824.981925h-204.482699a35.255638 35.255638 0 0 1-36.313307-36.313307V193.906008a35.255638 35.255638 0 0 1 36.313307-35.255638h463.964193a35.255638 35.255638 0 0 1 35.255638 35.255638v297.557583a21.858495 21.858495 0 1 0 43.540713 0V193.906008a80.559132 80.559132 0 0 0-78.796351-79.325185H261.949389a80.382854 80.382854 0 0 0-79.677742 79.325185v594.76261a80.382854 80.382854 0 0 0 79.677742 79.854019h204.482699A21.329661 21.329661 0 0 0 488.114305 846.135307a22.211052 22.211052 0 0 0-21.682217-21.153382z" fill="#bfbfbf" p-id="2458"></path><path d="M649.761405 513.322086a188.441384 188.441384 0 1 0 188.441384 188.441384 188.088828 188.088828 0 0 0-188.441384-188.441384z m0 333.342056a145.07695 145.07695 0 1 1 144.900671-144.900672A145.429506 145.429506 0 0 1 649.761405 846.135307zM653.463247 288.567395a22.211052 22.211052 0 0 0-21.858496-21.682217H356.25822a21.682217 21.682217 0 1 0 0 43.364435h275.346531a22.211052 22.211052 0 0 0 21.858496-21.682218zM356.25822 397.331038a21.682217 21.682217 0 1 0 0 43.364435h158.65037a21.682217 21.682217 0 1 0 0-43.364435z" fill="#bfbfbf" p-id="2459"></path><path d="M730.320537 738.253056h-37.723532a88.139095 88.139095 0 0 0 39.662592 15.51248c-3.349286 6.169737-7.051128 13.397142-10.752969 21.329661a82.321914 82.321914 0 0 1-46.184886-31.553796A76.152178 76.152178 0 0 1 628.7843 775.624032a107.000861 107.000861 0 0 0-12.868308-19.566879 70.511276 70.511276 0 0 0 39.662593-17.627819h-35.255638V722.740575h43.188156a53.941126 53.941126 0 0 0 1.233948-8.461353h-35.255638v-17.627819l-12.69203 12.515751c-2.467895-3.87812-5.112067-7.75624-8.108796-11.810638v77.914959h-20.800827V705.112756a211.533827 211.533827 0 0 1-15.51248 33.1403q-1.586504-11.281804-5.288346-30.143571a193.906008 193.906008 0 0 0 18.861766-43.364434h-17.627819v-19.919436h19.214323v-32.258908h20.44827v32.258908h15.512481v19.566879h-15.512481v9.342744c7.932519 7.403684 14.807368 14.102255 20.800826 20.271992v-39.486314h95.190222v59.229471h-38.781201v8.461353h45.656051z m-22.034774-88.139095h-19.566879v-9.166466h-25.207781v9.166466h-19.566879v-9.166466h-21.32966v-16.393871h21.32966v-12.339474h19.566879v12.339474h25.207781v-12.339474h19.566879v12.339474h22.739887v16.393871h-22.739887zM703.878809 669.857118h-54.117404v8.81391h54.117404z m0 30.143571v-9.166466h-54.117404v9.166466z" fill="#bfbfbf" p-id="2460"></path></svg>