<?xml version="1.0" standalone="no"?><!DOCTYPE svg PUBLIC "-//W3C//DTD SVG 1.1//EN" "http://www.w3.org/Graphics/SVG/1.1/DTD/svg11.dtd"><svg t="1701936908060" class="icon" viewBox="0 0 1024 1024" version="1.1" xmlns="http://www.w3.org/2000/svg" p-id="1530" xmlns:xlink="http://www.w3.org/1999/xlink" width="128" height="128"><path d="M512 0C229.2 0 0 229.2 0 512s229.2 512 512 512 512-229.2 512-512S794.8 0 512 0z m245.3 543.5H497.4c-23.3 0-42.3-18.9-42.3-42.3l2-336.2c0-23.3 18.9-42.3 42.3-42.3 23.3 0 42.3 18.9 42.3 42.3l-2 293.9h217.7c23.3 0 42.3 18.9 42.3 42.3-0.1 23.3-19 42.3-42.4 42.3z" p-id="1531" fill="#8a8a8a"></path></svg>