<?xml version="1.0" standalone="no"?><!DOCTYPE svg PUBLIC "-//W3C//DTD SVG 1.1//EN" "http://www.w3.org/Graphics/SVG/1.1/DTD/svg11.dtd"><svg t="1701936956379" class="icon" viewBox="0 0 1024 1024" version="1.1" xmlns="http://www.w3.org/2000/svg" p-id="1928" xmlns:xlink="http://www.w3.org/1999/xlink" width="128" height="128"><path d="M383.322315 188.113355h168.362523c38.578644 0 70.27453-28.111245 70.27453-62.500473 0-34.389228-31.397081-62.500473-70.27453-62.500472H383.322315c-38.573527 0-70.27453 28.112268-70.274529 62.500472 0 34.390251 31.701003 62.500473 70.274529 62.500473zM739.64879 598.62901c-99.997482 0-181.107801 81.46029-181.107801 181.109847 0 99.645464 81.46029 181.105754 181.107801 181.105754 99.643418 0 181.107801-81.46029 181.107801-181.105754 0-99.649558-81.110319-181.109848-181.107801-181.109847z m0 331.105046c-82.512249 0-149.641135-67.130933-149.641135-149.647275 0-34.262338 11.535731-65.73105 31.112601-90.903359l220.970694 200.336747c-26.920116 24.826432-62.932308 40.213887-102.44216 40.213887z m124.817774-67.484997L645.248793 663.658072c25.871227-20.972661 58.737776-33.562397 94.399997-33.562397 82.512249 0 149.641135 67.13298 149.641135 149.643182 0 30.768771-9.087982 59.086723-24.823361 82.510202z" fill="#8a8a8a" p-id="1929"></path><path d="M583.92103 901.929804c-26.25599-33.426297-42.044582-75.465762-42.044582-121.272018 0-108.630093 88.078011-196.708104 196.70401-196.708104 15.368012 0 30.266327 1.917676 44.615127 5.248538 17.159822 3.988848 33.462113 10.156314 48.569182 18.306947V221.970464c0-53.640688-43.48949-97.132224-97.132224-97.132224H648.53463s24.384363 95.706759-181.031053 95.706758c-204.402343 0-184.65151-95.706759-184.651511-95.706758h-82.476433c-53.641711 0-97.132224 43.491537-97.132224 97.132224v631.395274c0 53.642734 43.491537 97.138364 97.132224 97.138364H639.693264a197.352787 197.352787 0 0 1-55.772234-48.574298z m-394.541845-590.171384c0-12.145621 9.837042-21.976524 21.982664-21.976524h441.729563c12.145621 0 21.976524 9.836019 21.976524 21.976524v4.611018c0 12.145621-9.836019 21.982664-21.976524 21.982663h-441.730587c-12.145621 0-21.982664-9.836019-21.982663-21.982663v-4.611018z m242.84591 344.590176c0 12.145621-9.836019 21.976524-21.974477 21.976524h-198.889793c-12.145621 0-21.976524-9.837042-21.976524-21.976524v-4.612041c-0.00614-12.145621 9.830903-21.976524 21.976524-21.976524h198.88877c12.144598 0 21.974477 9.830903 21.974477 21.976524v4.612041z m97.134271-169.986509c0 12.145621-9.830903 21.976524-21.970384 21.976523H211.360825c-12.145621 0-21.976524-9.836019-21.976524-21.976523v-4.612042c0-12.144598 9.837042-21.974477 21.976524-21.974477h296.028157c12.145621 0 21.970384 9.834996 21.970384 21.974477v4.612042z m0 0" fill="#8a8a8a" p-id="1930"></path></svg>