<?xml version="1.0" standalone="no"?><!DOCTYPE svg PUBLIC "-//W3C//DTD SVG 1.1//EN" "http://www.w3.org/Graphics/SVG/1.1/DTD/svg11.dtd"><svg t="1708841450612" class="icon" viewBox="0 0 1024 1024" version="1.1" xmlns="http://www.w3.org/2000/svg" p-id="2373" xmlns:xlink="http://www.w3.org/1999/xlink" width="200" height="200"><path d="M573.44 375.466667L409.6 286.72c-10.24-6.826667-23.893333-6.826667-34.133333 0-10.24 6.826667-17.066667 17.066667-17.066667 27.306667v174.08c0 17.066667 10.24 23.893333 17.066667 27.306666 3.413333 3.413333 17.066667 6.826667 34.133333 0l163.84-85.333333c10.24-3.413333 17.066667-17.066667 17.066667-27.306667 0-13.653333-6.826667-23.893333-17.066667-27.306666z" p-id="2374"></path><path d="M860.16 47.786667H92.16C51.2 47.786667 13.653333 81.92 13.653333 126.293333v542.72c0 44.373333 34.133333 78.506667 78.506667 78.506667h768c40.96 0 78.506667-34.133333 78.506667-78.506667V126.293333c-3.413333-44.373333-37.546667-78.506667-78.506667-78.506666z m-252.586667 443.733333l-160.426666 95.573333c-17.066667 10.24-34.133333 13.653333-51.2 13.653334-58.026667 0-105.813333-47.786667-102.4-105.813334V303.786667c0-37.546667 20.48-71.68 51.2-92.16 30.72-20.48 71.68-20.48 102.4 0L607.573333 307.2c30.72 20.48 51.2 54.613333 51.2 92.16s-20.48 71.68-51.2 92.16zM819.2 914.773333H129.706667c-20.48 0-34.133333-17.066667-34.133334-37.546666 0-20.48 17.066667-37.546667 34.133334-37.546667H819.2c20.48 0 34.133333 17.066667 34.133333 37.546667 3.413333 20.48-13.653333 34.133333-34.133333 37.546666z" p-id="2375"></path></svg>