<svg t="1721629930737" class="icon" viewBox="0 0 1024 1024" version="1.1" xmlns="http://www.w3.org/2000/svg" p-id="2978"
  width="32" height="32">
  <path
    d="M524.2 442.87H288.54c-15.47 0-28.05-12.59-28.05-28.05 0-15.47 12.58-28.05 28.05-28.05H524.2c15.47 0 28.05 12.59 28.05 28.05s-12.58 28.05-28.05 28.05z m0-11.23h0.11-0.11zM681.3 633.63H288.54c-15.47 0-28.05-12.59-28.05-28.05s12.58-28.05 28.05-28.05H681.3c15.47 0 28.05 12.59 28.05 28.05s-12.58 28.05-28.05 28.05z m0-11.22h0.11-0.11z"
    fill="#ffffff" p-id="2979"></path>
  <path
    d="M686.89 442.87c-4.09 0-8.22-1.12-11.93-3.46-10.49-6.61-13.64-20.47-7.04-30.95l210-333.44c6.6-10.5 20.45-13.65 30.95-7.03 10.49 6.61 13.64 20.47 7.04 30.95l-210 333.44c-4.27 6.78-11.57 10.49-19.02 10.49z"
    fill="#ffffff" p-id="2980"></path>
  <path
    d="M855.23 959.06h-673.3c-24.76 0-44.89-20.14-44.89-44.89V151.1c0-24.75 20.13-44.89 44.89-44.89H686.9c12.39 0 22.44 10.05 22.44 22.44s-10.05 22.44-22.44 22.44H181.94v763.07h673.3V397.98c0-12.39 10.05-22.44 22.44-22.44s22.44 10.05 22.44 22.44v516.19c0 24.75-20.13 44.89-44.89 44.89z"
    fill="#ffffff" p-id="2981"></path>
</svg>
