<svg t="1677503487180" class="icon" viewBox="0 0 1024 1024" version="1.1" xmlns="http://www.w3.org/2000/svg" p-id="11858" width="64" height="64"><path d="M628.437333 149.333333L789.333333 310.101333V426.666667h42.666667v341.333333h-42.666667v42.666667a64 64 0 0 1-64 64H298.666667a64 64 0 0 1-64-64v-42.666667H192V426.666667h42.666667V213.333333a64 64 0 0 1 64-64h329.770666zM725.333333 768H298.666667v42.666667h426.666666v-42.666667zM478.250667 519.829333h-109.632v30.72h68.736l-70.848 92.352v29.568h113.28V642.133333h-68.736l67.2-89.664v-32.64z m55.296 0h-38.4v152.64h38.4v-152.64z m77.76 0H550.826667v152.64h38.4v-46.464h9.6a155.306667 155.306667 0 0 0 27.648-2.496 90.666667 90.666667 0 0 0 14.208-4.224c3.968-1.792 7.68-3.904 11.136-6.336 6.272-4.736 10.944-10.624 14.016-17.664 2.944-7.424 4.416-15.168 4.416-23.232a63.296 63.296 0 0 0-3.84-20.736 49.386667 49.386667 0 0 0-11.904-17.472 54.272 54.272 0 0 0-20.928-11.136 102.186667 102.186667 0 0 0-22.272-2.88z m-3.648 30.72c3.456 0.128 6.848 0.768 10.176 1.92 2.944 1.152 5.568 2.816 7.872 4.992 4.096 4.48 6.144 9.728 6.144 15.744 0 6.4-2.368 11.712-7.104 15.936a24.96 24.96 0 0 1-8.64 4.8 41.898667 41.898667 0 0 1-10.56 1.344h-16.32v-44.736h18.432zM572.736 213.312L298.666667 213.333333v213.333334h426.666666v-43.712h-152.576L572.736 213.333333z m64 34.773333v70.869334h70.912l-70.912-70.869334z" fill="#a96913" p-id="11859"></path></svg>